<svg xmlns="http://www.w3.org/2000/svg" viewBox="0 0 83.43 11.12"><title>Asset 1.svg</title><g id="Layer_2" data-name="Layer 2"><g id="f41ede93-bd41-4745-8f57-a662d5b0d80e"><path d="M16.83,10.93c.19,0,.28,0,.28.07s-.15.15-.46.12a2.05,2.05,0,0,1-2.11-2,2.71,2.71,0,0,1,0-.29A8.19,8.19,0,0,1,15,6.43Q15.17,6,16,3.76a3.43,3.43,0,0,0,.21-1c0-.35-.12-.53-.36-.53-.53,0-1.31.72-2.32,2.16A25.84,25.84,0,0,0,12,6.87a18.84,18.84,0,0,0-1.25,2.6c-.14.43-.37.65-.67.65A.55.55,0,0,1,9.8,10a.24.24,0,0,1-.14-.22v-.1a18.89,18.89,0,0,0,1.26-3.49,17.12,17.12,0,0,0,.46-3.48c0-.78-.19-1.17-.61-1.17s-.78.3-1.19.88a19.83,19.83,0,0,0-2,3.46C7.26,6.62,6.73,8,6,10.14a.56.56,0,0,1-.61.35c-.29,0-.41-.09-.37-.28A19.45,19.45,0,0,0,6.42,6.47a17.78,17.78,0,0,0,.77-3.88C7.26,1,6.73.21,5.62.21a4.38,4.38,0,0,0-2.94,1.4A5.74,5.74,0,0,0,.86,4.37,5.16,5.16,0,0,0,.68,5.61a2.73,2.73,0,0,0,.5,1.68A1.79,1.79,0,0,0,2.7,8,2.08,2.08,0,0,0,4.52,6.91,2.73,2.73,0,0,0,5,5.53c0-.63-.28-.94-.84-.94H3.87c-.19,0-.28,0-.28-.12s.11-.09.31-.13h.27A1,1,0,0,1,5,4.7a1.31,1.31,0,0,1,.31.93,2.45,2.45,0,0,1-.57,1.53,3.65,3.65,0,0,1-1.33,1,2.12,2.12,0,0,1-.83.17A2.38,2.38,0,0,1,.75,7.47a2.91,2.91,0,0,1-.75-2A3.91,3.91,0,0,1,.28,4.29a6.53,6.53,0,0,1,2.1-2.94A5.15,5.15,0,0,1,5.69,0,2,2,0,0,1,7.42.77,3.09,3.09,0,0,1,8,2.66a9.7,9.7,0,0,1-.39,2.39,1.31,1.31,0,0,0,0,.28v.1a.74.74,0,0,0,.18-.25A17.13,17.13,0,0,1,9.41,2.27a2.32,2.32,0,0,1,.76-.67,1.85,1.85,0,0,1,.94-.29c.71,0,1.06.47,1.06,1.41A12.19,12.19,0,0,1,11.93,5c0,.28-.22,1-.49,2.24A31.55,31.55,0,0,1,13.5,3.94q1.62-2.31,2.79-2.31c.49,0,.73.32.73,1A3.89,3.89,0,0,1,16.68,4a14.73,14.73,0,0,0-1.4,5.05C15.28,10.35,15.83,11,16.83,10.93Z"/><path d="M21.14,7.5A9.07,9.07,0,0,1,20.33,9a1.86,1.86,0,0,1-1.48.79A1.09,1.09,0,0,1,18,9.46a1.2,1.2,0,0,1-.33-.82,3.44,3.44,0,0,1,.92-2.24,2.1,2.1,0,0,1,1.59-.92c.44,0,.67.19.67.57A1.74,1.74,0,0,1,20,7.36a2.67,2.67,0,0,1-.72.35,2.48,2.48,0,0,1-.76.18,2.27,2.27,0,0,0-.16.86c0,.51.19.77.57.77.73,0,1.39-.67,2-2a.2.2,0,0,1,.19-.16.06.06,0,0,1,.06.07ZM20.55,6c0-.18-.06-.27-.19-.27a2.26,2.26,0,0,0-1,.83,6.36,6.36,0,0,0-.72,1.13,2.08,2.08,0,0,0,1.28-.54A1.51,1.51,0,0,0,20.55,6Z"/><path d="M26.28,7.55a13.36,13.36,0,0,1-.75,1.39c-.39.56-.79.85-1.19.85A.71.71,0,0,1,23.6,9a4,4,0,0,1,.76-1.88.66.66,0,0,0,.12-.32c0-.13-.07-.17-.22-.12a2.16,2.16,0,0,0-.75.52,8.4,8.4,0,0,0-1.67,2.37.42.42,0,0,1-.39.19,1.24,1.24,0,0,0-.47.06c.45-1,1-2.09,1.66-3.36A3,3,0,0,1,23,6a.61.61,0,0,1,.53-.23h.24a1.13,1.13,0,0,0,.26,0A6.23,6.23,0,0,0,22.54,8a7,7,0,0,1,2-1.82,2.3,2.3,0,0,1,1-.4h.12c-.42.77-.7,1.29-.83,1.56a6.35,6.35,0,0,0-.61,1.53,1.4,1.4,0,0,0,0,.29c0,.2.07.31.22.31.42,0,1-.69,1.64-2.07q.06-.12.12-.12c.06,0,0,0,0,.09A.24.24,0,0,1,26.28,7.55Z"/><path d="M31,8.92c-.38.55-.75.82-1.11.82s-.65-.29-.65-.87a2.27,2.27,0,0,1,.12-.69c-.58,1-1.12,1.54-1.62,1.54A.69.69,0,0,1,27,9.15.61.61,0,0,1,27,9a3.25,3.25,0,0,1,.44-1.17c-.09,0-.14,0-.14-.1s.31-.62.92-1.84a.47.47,0,0,1,.46-.25h.74a2.54,2.54,0,0,0-.77,1c-.15.29-.4.8-.76,1.55a2.12,2.12,0,0,0-.25.9c0,.26.09.39.28.39s.41-.15.68-.46a18,18,0,0,0,1.76-3.11.45.45,0,0,1,.47-.25h.64a3.52,3.52,0,0,0-.82,1.19,9.21,9.21,0,0,0-.81,1.91,1.4,1.4,0,0,0,0,.29c0,.28.08.42.26.43.42,0,.95-.66,1.58-2,0-.08.09-.12.14-.12s.06,0,.06.1v.1a3.91,3.91,0,0,1-.35.67A6.65,6.65,0,0,1,31,8.92Z"/><path d="M47.43,9.32a4.23,4.23,0,0,1-2.65.9h-.54A11.73,11.73,0,0,1,41,9.36a3.82,3.82,0,0,1-2.46.9H38a2.11,2.11,0,0,1-1-.35,1,1,0,0,1-.49-.85,1,1,0,0,1,.5-.89,1.78,1.78,0,0,1,1-.28,3.85,3.85,0,0,1,1.49.37c.2.09.66.33,1.36.71A14.49,14.49,0,0,0,43.1,5.58a20.14,20.14,0,0,1,2.31-3.7,5.8,5.8,0,0,0-6.36.33,2.55,2.55,0,0,0-1.18,2,1.1,1.1,0,0,0,.86,1.15,2.53,2.53,0,0,0,.55.09,1.59,1.59,0,0,0,1.2-.56,1.53,1.53,0,0,0,.42-.84A.09.09,0,0,1,41,4h0c.1,0,.15.07.13.2a1.82,1.82,0,0,1-.65,1.14,2.08,2.08,0,0,1-1.27.44,1.81,1.81,0,0,1-.61-.1,1.78,1.78,0,0,1-1.27-1.45,2.28,2.28,0,0,1,0-.37,2.33,2.33,0,0,1,.81-1.67A6.13,6.13,0,0,1,41.57.71a5.61,5.61,0,0,1,1-.07,6.7,6.7,0,0,1,3.22.79l.3-.35a3.19,3.19,0,0,1,1-.67.53.53,0,0,1,.24-.06h.08a1.72,1.72,0,0,1-.24.25,1.64,1.64,0,0,0-.31.28c-.18.24-.36.51-.56.81a5.7,5.7,0,0,1,1.84,2,5.34,5.34,0,0,1,.65,2.6A3.62,3.62,0,0,1,47.43,9.32Zm-6.85-.18c-.55-.28-1.15-.55-1.81-.83a1.35,1.35,0,0,0-.59-.11.86.86,0,0,0-.61.21.69.69,0,0,0-.25.57.77.77,0,0,0,.29.63,1.26,1.26,0,0,0,.67.26,3.46,3.46,0,0,0,2.3-.73ZM48,6.87a5.8,5.8,0,0,0,0-.59,5,5,0,0,0-2-4.14L43.82,5.68a18.79,18.79,0,0,1-2.1,3c-.11.12-.26.26-.45.43a8.26,8.26,0,0,0,3.31.76A3.47,3.47,0,0,0,46.88,9,3.08,3.08,0,0,0,48,6.87Z"/><path d="M53.83,7.5A9.13,9.13,0,0,1,53,9a1.83,1.83,0,0,1-1.47.79,1.09,1.09,0,0,1-.82-.33,1.12,1.12,0,0,1-.33-.82,3.44,3.44,0,0,1,.92-2.24,2.11,2.11,0,0,1,1.58-.92c.45,0,.68.19.68.57a1.74,1.74,0,0,1-.87,1.31,2.67,2.67,0,0,1-.72.35,2.48,2.48,0,0,1-.77.18,2.47,2.47,0,0,0-.15.86c0,.51.19.77.56.77.74,0,1.4-.67,2-2,0-.11.12-.16.2-.16s.06,0,.06.07ZM53.28,6c0-.18-.06-.27-.19-.27a2.26,2.26,0,0,0-1,.83,6.36,6.36,0,0,0-.72,1.13,2.08,2.08,0,0,0,1.28-.54A1.56,1.56,0,0,0,53.28,6Z"/><path d="M58,3.87a11.14,11.14,0,0,1-2.46,3.61,6.77,6.77,0,0,0-.25.8,2,2,0,0,0-.09.6c0,.45.16.67.46.67A1.21,1.21,0,0,0,56.49,9c0-.06.23-.36.54-.91s.45-.74.51-.74.05,0,.05.07v.12A8.82,8.82,0,0,1,56.83,9a1.79,1.79,0,0,1-1.4.85c-.56,0-.84-.3-.84-.88a6.81,6.81,0,0,1,.31-1.49,17.54,17.54,0,0,1,1.83-4.24c.37-.64.76-1,1.15-1s.42.18.42.55A2.74,2.74,0,0,1,58,3.87Zm-.18-.19A2,2,0,0,0,58,2.92c0-.12,0-.17-.08-.17s-.21.13-.4.39a20.39,20.39,0,0,0-1.89,3.94,10.76,10.76,0,0,0,2.18-3.43Z"/><path d="M58.76,8.73a1.11,1.11,0,0,0-.07.37c0,.24.1.37.31.39.43,0,1-.65,1.67-2a.13.13,0,0,1,.13-.12c.05,0,.06,0,.06.08a.33.33,0,0,1,0,.14c-.68,1.47-1.31,2.2-1.89,2.2s-.79-.29-.79-.86a2.08,2.08,0,0,1,.14-.7l.77-2a.28.28,0,0,0,0-.13.58.58,0,0,0-.15-.36h.66c.23,0,.34,0,.34.17a1.25,1.25,0,0,1-.09.25l-1,2.24A1.27,1.27,0,0,1,58.76,8.73ZM61,4.51a.61.61,0,0,1-.21.34.56.56,0,0,1-.37.15.44.44,0,0,1-.32-.15.47.47,0,0,1-.1-.34.52.52,0,0,1,.2-.35A.54.54,0,0,1,60.54,4a.41.41,0,0,1,.33.15A.43.43,0,0,1,61,4.51Z"/><path d="M65.07,7.55a6.87,6.87,0,0,1-.88,1.56,1.86,1.86,0,0,1-1.41.68,1.07,1.07,0,0,1-1.19-.91,1.4,1.4,0,0,1,0-.29,3.42,3.42,0,0,1,.7-2A2.13,2.13,0,0,1,64,5.52c.61,0,.89.27.83.83a.9.9,0,0,1-.22.46.52.52,0,0,1-.41.24A.29.29,0,0,1,64,7a1.26,1.26,0,0,0,.41-.89c0-.2-.09-.31-.28-.31-.42,0-.85.4-1.3,1.19a3.67,3.67,0,0,0-.6,1.79c0,.53.24.79.66.79.62,0,1.28-.7,2-2.1a.14.14,0,0,1,.14-.13c.05,0,.05,0,.05.08A.3.3,0,0,1,65.07,7.55Z"/><path d="M66.28,8.73a1.11,1.11,0,0,0-.07.37c0,.24.1.37.31.39.43,0,1-.65,1.67-2a.13.13,0,0,1,.13-.12c.05,0,.06,0,.06.08a.33.33,0,0,1,0,.14c-.68,1.47-1.31,2.2-1.89,2.2s-.79-.29-.79-.86a2.08,2.08,0,0,1,.14-.7l.77-2a.28.28,0,0,0,0-.13.58.58,0,0,0-.15-.36h.66c.23,0,.34,0,.34.17a1.25,1.25,0,0,1-.09.25l-1,2.24A.38.38,0,0,1,66.28,8.73Zm2.2-4.22a.57.57,0,0,1-.2.36.56.56,0,0,1-.37.15.44.44,0,0,1-.32-.15.47.47,0,0,1-.1-.34.52.52,0,0,1,.2-.35A.54.54,0,0,1,68.07,4a.41.41,0,0,1,.33.15.39.39,0,0,1,.12.33Z"/><path d="M73.62,7.51A8.62,8.62,0,0,1,73,8.83a1.62,1.62,0,0,1-1.26.81,1,1,0,0,1-.69-.3,1.75,1.75,0,0,1-1,.41c-.56,0-.84-.37-.84-1.07a2.86,2.86,0,0,1,.25-1.12,4.3,4.3,0,0,1,.9-1.32,1.87,1.87,0,0,1,1.38-.7c.56,0,.84.37.84,1.06a3.53,3.53,0,0,1-1.25,2.55.64.64,0,0,0,.58.28c.36,0,.72-.3,1.09-.88.21-.38.4-.77.57-1.16a.1.1,0,0,1,.09-.06s.08,0,.08.09ZM71.77,5.87a1.33,1.33,0,0,0-.94.6,3.56,3.56,0,0,0-.62,1,3.68,3.68,0,0,0-.42,1.45c0,.36.13.54.4.54a1.14,1.14,0,0,0,.68-.32,1,1,0,0,1-.19-.58c0-.35.15-.52.42-.52a.31.31,0,0,1,.36.27v.22a4.52,4.52,0,0,0,.73-2.06C72.19,6.11,72.05,5.87,71.77,5.87Z"/><path d="M78.28,8.92c-.38.55-.75.82-1.11.82s-.68-.29-.68-.85a2.27,2.27,0,0,1,.12-.69C76,9.2,75.49,9.74,75,9.74a.69.69,0,0,1-.78-.57.61.61,0,0,1,0-.19,3.25,3.25,0,0,1,.44-1.17c-.09,0-.14,0-.14-.1s.31-.62.92-1.84a.47.47,0,0,1,.46-.25h.74a2.54,2.54,0,0,0-.77,1c-.15.29-.4.8-.76,1.55a2.12,2.12,0,0,0-.25.9c0,.26.09.39.28.39s.41-.15.68-.46a17.54,17.54,0,0,0,1.83-3.13.45.45,0,0,1,.47-.25h.64a3.52,3.52,0,0,0-.82,1.19,9.21,9.21,0,0,0-.81,1.91,1.4,1.4,0,0,0,0,.29c0,.28.08.42.26.43.42,0,1-.66,1.58-2,0-.08.09-.12.14-.12s.06,0,.06.1v.1a3.91,3.91,0,0,1-.35.67A6.16,6.16,0,0,1,78.28,8.92Z"/><path d="M83.28,7.64a10.66,10.66,0,0,1-.52,1,1.81,1.81,0,0,1-1.5,1.09,1.84,1.84,0,0,1-.41-.06,1.59,1.59,0,0,1-.49.11,1.24,1.24,0,0,1-.77-.24.84.84,0,0,1-.3-.7.92.92,0,0,1,.11-.46.41.41,0,0,1,.36-.29c.29-.59.57-1.18.85-1.77.46-.84.85-1.28,1.17-1.33a.69.69,0,0,1,.35,0q.24.06.24.21a.08.08,0,0,1-.07.07h0l-.22-.07a.32.32,0,0,0-.27,0,.77.77,0,0,0-.41.79,2,2,0,0,0,.16.73l.28.69a1.57,1.57,0,0,1-.7,2.06h.15a1.28,1.28,0,0,0,1.08-.55,10.26,10.26,0,0,0,.9-1.57.08.08,0,0,1,.08-.06c.06,0,.09,0,.09.08A.81.81,0,0,1,83.28,7.64ZM80.51,9.53A1.06,1.06,0,0,1,80,8.65a.64.64,0,0,0-.21.47.39.39,0,0,0,.33.45h.12a.54.54,0,0,0,.28-.05Zm.74-1.34a6.63,6.63,0,0,0-.08-1,8.47,8.47,0,0,1-.1-1V5.87Q80.38,7.28,80,8.09c.19,0,.27.14.25.38a.91.91,0,0,0,.51.93,1.66,1.66,0,0,0,.56-1.21Z"/></g></g></svg>