<svg id="bcae8a10-ce07-49cd-8967-5856358bee49" data-name="svg4849" xmlns="http://www.w3.org/2000/svg" xmlns:xlink="http://www.w3.org/1999/xlink" viewBox="0 0 71.83 115.83"><defs><style>.a3194501-2510-4fe2-9e6d-5c1dc0022ee3{fill:#ffac32;}.eabfd197-2666-4d42-bb9e-f654b202b83a{fill:url(#bffbbad8-a625-439a-9944-3def5cd2293e);}.ac222a7b-3f16-4e05-b391-20abffacf407{fill:url(#ac7154c2-ad9a-4776-862c-103e3e7fb246);}.ad84e3e1-64f5-40f7-8921-15c27b3c5b89{fill:url(#b0bf0236-2f6f-4f42-ba2b-1897caa5d490);}.b8c2b85e-1906-4f51-a61b-dca132a256bf{fill:#f6fad7;}.a7dcc5c1-0358-433a-bc91-283bfde4df7b{fill:url(#ee8f5b00-8539-494c-ba48-87bfcef05864);}.b8a384fa-fc5e-411e-bfcd-b115d3835c1a{fill:url(#a447a415-54cb-4de2-9677-ab0870d3e1dc);}.ab20cc6b-10f7-4bcf-bfe1-4c23fe5408eb{fill:#bda9a2;}.fb5e2917-5baf-43cb-9db5-caeb54acfab2{fill:url(#f98b8ac1-7355-4cd6-9eb1-bab2d3d55754);}.f1372d32-dea1-4b0e-a0b5-6fc3784c3fe4{fill:url(#f8fa5c0e-710a-405c-a960-2095609430e3);}.ff09338f-2687-41f9-85b5-9045c625482d{fill:url(#e5a6c7ec-2ab5-4ecb-9d0c-419cc45ee1b7);}.f56cba4d-850d-4b16-992d-f24be6b10adb{fill:url(#f2c5781c-1c41-405f-80f2-a69d17004519);}.fec020a0-2343-4364-be7b-6c44031fbb69{fill:url(#ec121274-bc18-4991-8fa3-5620e58e0dcd);}.bf7fff0c-ecf6-4f95-9b73-b25dc9cfb50b{fill:url(#a4671ce2-0263-40a4-948d-9203dba72925);}.b13fdb9a-7ab4-415a-b9be-48205018a5df{fill:url(#b2a964b5-26c5-448b-8a69-24128634e126);}.adc3f0b8-1aa4-4e03-bd6d-af353a470f97,.b37983de-2c3f-4403-87a1-07bdbb2e4baa,.bdbc08a0-be48-4e10-8dd5-ecedd468da47,.e7a0884c-61e4-4b5d-be96-3723397e76fd{opacity:0.2;}.aab68f52-d7aa-4f4d-b85f-28219a4a9c92,.adc3f0b8-1aa4-4e03-bd6d-af353a470f97,.ae63e54c-5062-447d-bc03-69e6b55e0e0c,.b37983de-2c3f-4403-87a1-07bdbb2e4baa,.b75ed339-a79d-40b7-9355-d851cf1c94ec,.b8bc1d12-7f61-41a4-a9db-32ba40140548,.bd95d448-3773-4ce4-81f4-ec3ff14caebd,.bdbc08a0-be48-4e10-8dd5-ecedd468da47,.e35e394f-0603-4ee7-be2f-5a39975083b6,.e3e50265-6a8b-4a25-a93d-2672d1f39740,.e4c723e5-4f04-4c89-bcae-71964e1558ed,.e6ea5116-15a6-4a77-8a08-6563b87deede,.e7a0884c-61e4-4b5d-be96-3723397e76fd,.f287bc9e-0ea5-4b16-a3ea-9f2cd01908f5{isolation:isolate;}.adc3f0b8-1aa4-4e03-bd6d-af353a470f97{fill:url(#bfe505b3-29b1-4860-9dd4-4f450c8ccb4a);}.b8bc1d12-7f61-41a4-a9db-32ba40140548,.e3e50265-6a8b-4a25-a93d-2672d1f39740{opacity:0.3;}.e3e50265-6a8b-4a25-a93d-2672d1f39740{fill:url(#ab381b53-1f91-4175-8dca-88432cd9fb17);}.b8bc1d12-7f61-41a4-a9db-32ba40140548{fill:url(#b2c64921-cd00-4b2f-8c48-8c35a4497010);}.ae63e54c-5062-447d-bc03-69e6b55e0e0c,.e35e394f-0603-4ee7-be2f-5a39975083b6,.e4c723e5-4f04-4c89-bcae-71964e1558ed{opacity:0.5;}.e4c723e5-4f04-4c89-bcae-71964e1558ed{fill:url(#a28b2ba8-c256-49c9-94f4-f59877304adc);}.e35e394f-0603-4ee7-be2f-5a39975083b6{fill:url(#ebd3d730-24d0-4a50-907f-1f8f888b323b);}.e7a0884c-61e4-4b5d-be96-3723397e76fd{fill:url(#ffdbdb72-18b1-4b8e-bd24-2156f1ed5c08);}.b7f6d798-9c38-4de1-989a-17a760995db8{fill:url(#f69dfa2e-7536-4a03-b5d4-ebfa6c2e1cfc);}.bbb16349-706f-4ca8-9dae-f177ca9c45b0{fill:url(#b30a19d7-d044-480c-a5c3-2ca80e8d5d80);}.b75ed339-a79d-40b7-9355-d851cf1c94ec,.f287bc9e-0ea5-4b16-a3ea-9f2cd01908f5{opacity:0.6;}.f287bc9e-0ea5-4b16-a3ea-9f2cd01908f5{fill:url(#e031ad3b-d2b7-4eb6-a7d6-77c743130dea);}.aab68f52-d7aa-4f4d-b85f-28219a4a9c92,.ae63e54c-5062-447d-bc03-69e6b55e0e0c,.b75ed339-a79d-40b7-9355-d851cf1c94ec{fill:#fff;}.b37983de-2c3f-4403-87a1-07bdbb2e4baa{fill:url(#ed154017-9e4c-4c8d-aa4d-19789f8bb24a);}.b003150e-02c7-4548-9386-6b559ef2a2fd{fill:#ababab;}.bdbc08a0-be48-4e10-8dd5-ecedd468da47{fill:url(#f8001bd2-5944-48c3-89ab-6b52c702ac27);}.a8234861-2a4d-455d-9836-62bac815ebd9{fill:url(#a0461801-5d2e-4b47-8a88-32c98592693d);}.a6fe09ce-5282-46dd-8326-f5040aa3d741{fill:url(#eb3d357b-41f0-4761-bd7b-34597beb8185);}.ab7fe7cd-7e39-416e-9194-4b9e0054d99a{fill:url(#b6799423-2cdc-4e03-a495-943ac6302444);}.a17d6916-40a0-4dec-a11e-36cc349971ba{fill:url(#b496d106-fc7e-4543-a042-fea63fdef0fc);}.aab68f52-d7aa-4f4d-b85f-28219a4a9c92,.bd95d448-3773-4ce4-81f4-ec3ff14caebd,.e6ea5116-15a6-4a77-8a08-6563b87deede{opacity:0.4;}.e6ea5116-15a6-4a77-8a08-6563b87deede{fill:url(#b618ba6e-d610-4ae3-b29f-baa8fb59ad4c);}.bd95d448-3773-4ce4-81f4-ec3ff14caebd{fill:url(#a3bfe912-9005-4c1e-a028-eb9c2be52413);}</style><radialGradient id="bffbbad8-a625-439a-9944-3def5cd2293e" cx="-1956.87" cy="-908.51" r="138.97" gradientTransform="matrix(0.03, -0.14, -0.14, -0.03, -6.96, -209.82)" gradientUnits="userSpaceOnUse"><stop offset="0" stop-color="#ff8705"/><stop offset="0.24" stop-color="#ff8705"/><stop offset="0.78" stop-color="#f7b658"/><stop offset="0.86" stop-color="#fff4a6"/><stop offset="1" stop-color="#ffd703"/></radialGradient><radialGradient id="ac7154c2-ad9a-4776-862c-103e3e7fb246" cx="195.14" cy="-748.71" r="49.37" gradientTransform="matrix(0.32, 0.09, 0.09, -0.34, 67.36, -175.14)" gradientUnits="userSpaceOnUse"><stop offset="0" stop-color="#ffbb28"/><stop offset="0.53" stop-color="#ffe06e"/><stop offset="1" stop-color="#ffaa1a"/></radialGradient><radialGradient id="b0bf0236-2f6f-4f42-ba2b-1897caa5d490" cx="-2200.67" cy="-2737.68" r="218.79" gradientTransform="matrix(0.06, -0.05, -0.04, -0.06, 78.9, -175.37)" gradientUnits="userSpaceOnUse"><stop offset="0" stop-color="#ff8b02"/><stop offset="0.11" stop-color="#ffbb1b"/><stop offset="0.65" stop-color="#ffc817"/><stop offset="1" stop-color="#ff8705"/></radialGradient><linearGradient id="ee8f5b00-8539-494c-ba48-87bfcef05864" x1="1232.95" y1="-1124.02" x2="1235.91" y2="-1125.05" gradientTransform="matrix(0.27, 0.05, 0.05, -0.27, -184.29, -270.16)" gradientUnits="userSpaceOnUse"><stop offset="0" stop-color="#c8a185"/><stop offset="0.28" stop-color="#fefceb"/><stop offset="1" stop-color="#b04e07"/></linearGradient><radialGradient id="a447a415-54cb-4de2-9677-ab0870d3e1dc" cx="987.73" cy="685.04" r="5.52" gradientTransform="matrix(-0.5, 0.72, 0.26, 0.18, 406.09, -760.26)" gradientUnits="userSpaceOnUse"><stop offset="0" stop-color="#fff"/><stop offset="0.32" stop-color="#fadba3"/><stop offset="1" stop-color="#e8853d"/></radialGradient><linearGradient id="f98b8ac1-7355-4cd6-9eb1-bab2d3d55754" x1="1247.75" y1="-1091.97" x2="1256.74" y2="-1057.97" gradientTransform="matrix(0.27, 0.05, 0.05, -0.27, -184.29, -270.16)" gradientUnits="userSpaceOnUse"><stop offset="0" stop-color="#ff8282"/><stop offset="0.53" stop-color="#eb0000"/><stop offset="1" stop-color="maroon"/></linearGradient><linearGradient id="f8fa5c0e-710a-405c-a960-2095609430e3" x1="1262.08" y1="-1064.2" x2="1248.82" y2="-1089.4" gradientTransform="matrix(0.27, 0.05, 0.05, -0.27, -184.29, -270.16)" gradientUnits="userSpaceOnUse"><stop offset="0" stop-color="#a80000"/><stop offset="0.33" stop-color="#7f0000"/><stop offset="1" stop-color="#a90403"/></linearGradient><linearGradient id="e5a6c7ec-2ab5-4ecb-9d0c-419cc45ee1b7" x1="-1223.29" y1="-1320.81" x2="-1206.81" y2="-1320.81" gradientTransform="matrix(-0.15, -0.05, 0.06, -0.17, -29.8, -196.6)" gradientUnits="userSpaceOnUse"><stop offset="0" stop-color="#8f9fd0"/><stop offset="0.13" stop-color="#03a"/><stop offset="0.38" stop-color="#00a3ff"/><stop offset="0.71" stop-color="#aaf4ff"/><stop offset="0.89" stop-color="#0088d4"/><stop offset="1" stop-color="#010080"/></linearGradient><linearGradient id="f2c5781c-1c41-405f-80f2-a69d17004519" x1="-1859.97" y1="448.42" x2="-1843.51" y2="448.42" gradientTransform="matrix(0.03, -0.16, 0.18, 0.04, 88.41, -238.92)" xlink:href="#e5a6c7ec-2ab5-4ecb-9d0c-419cc45ee1b7"/><radialGradient id="ec121274-bc18-4991-8fa3-5620e58e0dcd" cx="310.97" cy="-202.19" r="7.04" gradientTransform="matrix(1.13, 0.3, 0.41, -1.53, -175.53, -328.77)" gradientUnits="userSpaceOnUse"><stop offset="0" stop-color="#0638ac"/><stop offset="0.44" stop-color="#4466bc"/><stop offset="0.56" stop-color="#5e7ac3"/><stop offset="0.67" stop-color="#0051c0"/><stop offset="0.77" stop-color="#38b9ff"/><stop offset="0.82" stop-color="#2ab5fc"/><stop offset="1" stop-color="#83dbf5"/></radialGradient><radialGradient id="a4671ce2-0263-40a4-948d-9203dba72925" cx="370.31" cy="-269.93" r="6.65" gradientTransform="matrix(0.72, 0.16, 0.25, -1.11, -108.01, -287.31)" gradientUnits="userSpaceOnUse"><stop offset="0" stop-color="#4cc7ff"/><stop offset="0.77" stop-color="#2fb9ff"/><stop offset="1" stop-color="#a0e1ff"/></radialGradient><linearGradient id="b2a964b5-26c5-448b-8a69-24128634e126" x1="127.17" y1="-962.19" x2="125.47" y2="-819.18" gradientTransform="matrix(0.58, 0, 0, -0.57, -2.33, -372.14)" gradientUnits="userSpaceOnUse"><stop offset="0" stop-color="#402c2c"/><stop offset="0.31" stop-color="#870013"/><stop offset="0.42" stop-color="#f91c29"/><stop offset="0.56" stop-color="#f26401"/><stop offset="0.62" stop-color="#033126"/><stop offset="0.71" stop-color="#4bf6ee"/><stop offset="0.99" stop-color="#12f8f9"/><stop offset="1" stop-color="#043328"/></linearGradient><radialGradient id="bfe505b3-29b1-4860-9dd4-4f450c8ccb4a" cx="-881.78" cy="-271.6" r="77.91" gradientTransform="matrix(0, -0.21, -0.31, -0.01, -12.42, -47.17)" gradientUnits="userSpaceOnUse"><stop offset="0" stop-color="#fff"/><stop offset="0.51" stop-color="#dcdcdc"/><stop offset="1" stop-color="#1d1d1d"/></radialGradient><linearGradient id="ab381b53-1f91-4175-8dca-88432cd9fb17" x1="1139.15" y1="-1800.62" x2="1189.17" y2="-1805.46" gradientTransform="matrix(0.11, 0, 0, -0.15, -63.39, -146.33)" gradientUnits="userSpaceOnUse"><stop offset="0" stop-color="#405688"/><stop offset="1" stop-color="#f6f4f4"/></linearGradient><linearGradient id="b2c64921-cd00-4b2f-8c48-8c35a4497010" x1="-340.89" y1="-1803.93" x2="-289.79" y2="-1806.05" gradientTransform="translate(45.76 -146.33) rotate(180) scale(0.11 0.15)" gradientUnits="userSpaceOnUse"><stop offset="0" stop-color="#171b26"/><stop offset="1" stop-color="#f3f1f1"/></linearGradient><radialGradient id="a28b2ba8-c256-49c9-94f4-f59877304adc" cx="-109.88" cy="-653.92" r="3.81" gradientTransform="matrix(-0.08, 2.36, -0.74, 0.01, -419.61, 430.8)" gradientUnits="userSpaceOnUse"><stop offset="0" stop-color="#1c2028"/><stop offset="0.62" stop-color="#41444b"/><stop offset="1" stop-color="#fff"/></radialGradient><radialGradient id="ebd3d730-24d0-4a50-907f-1f8f888b323b" cx="-110.5" cy="-438.58" r="3.91" gradientTransform="matrix(0.08, 2.36, 0.74, 0.01, 401.78, 430.8)" xlink:href="#a28b2ba8-c256-49c9-94f4-f59877304adc"/><linearGradient id="ffdbdb72-18b1-4b8e-bd24-2156f1ed5c08" x1="821.74" y1="-1284.97" x2="846.39" y2="-1320" gradientTransform="matrix(0.19, 0, 0, -0.18, -98.83, -138.68)" gradientUnits="userSpaceOnUse"><stop offset="0" stop-color="#686868"/><stop offset="1" stop-color="#f4f4f4"/></linearGradient><linearGradient id="f69dfa2e-7536-4a03-b5d4-ebfa6c2e1cfc" x1="135.43" y1="-971.14" x2="122.93" y2="-819.79" gradientTransform="matrix(0.57, 0, 0, -0.57, -2.39, -373.53)" gradientUnits="userSpaceOnUse"><stop offset="0" stop-color="#402c2c"/><stop offset="0.21" stop-color="#929ea7"/><stop offset="0.33" stop-color="#6f6f6f"/><stop offset="0.48" stop-color="#4c5057"/><stop offset="0.62" stop-color="#5e5e5e"/><stop offset="0.8" stop-color="#c3c3c3"/><stop offset="1" stop-color="#484848"/></linearGradient><radialGradient id="b30a19d7-d044-480c-a5c3-2ca80e8d5d80" cx="-227.66" cy="-427.55" r="24.58" gradientTransform="matrix(0, 1.53, 0.44, 0, 260.68, 527.53)" gradientUnits="userSpaceOnUse"><stop offset="0" stop-color="#fff"/><stop offset="1" stop-color="#402c2c"/></radialGradient><radialGradient id="e031ad3b-d2b7-4eb6-a7d6-77c743130dea" cx="-559.53" cy="1558.22" r="27.2" gradientTransform="matrix(-0.55, -0.01, 0, 0.14, -231.29, -40.75)" gradientUnits="userSpaceOnUse"><stop offset="0" stop-color="#4c4e53"/><stop offset="0.43" stop-color="#a9abae"/><stop offset="1" stop-color="#fff"/></radialGradient><linearGradient id="ed154017-9e4c-4c8d-aa4d-19789f8bb24a" x1="900.94" y1="-1680.1" x2="904" y2="-1648.88" gradientTransform="matrix(0.19, 0, 0, -0.17, -104.07, -137.34)" gradientUnits="userSpaceOnUse"><stop offset="0" stop-color="#460004"/><stop offset="1" stop-color="#e2e2e2"/></linearGradient><linearGradient id="f8001bd2-5944-48c3-89ab-6b52c702ac27" x1="-17.49" y1="-1290.04" x2="7.16" y2="-1325.07" gradientTransform="translate(81 -138.68) rotate(180) scale(0.19 0.18)" xlink:href="#ffdbdb72-18b1-4b8e-bd24-2156f1ed5c08"/><radialGradient id="a0461801-5d2e-4b47-8a88-32c98592693d" cx="-720.42" cy="50.29" r="7.08" gradientTransform="matrix(0.01, -0.58, -1.79, -0.1, 165.74, -256.61)" gradientUnits="userSpaceOnUse"><stop offset="0" stop-color="#2d2d2f"/><stop offset="1" stop-color="#dddbdc"/></radialGradient><linearGradient id="eb3d357b-41f0-4761-bd7b-34597beb8185" x1="1853.62" y1="-2478.21" x2="1620.1" y2="-2241.45" gradientTransform="matrix(-0.07, 0.06, -0.07, -0.09, 11.58, -162.3)" gradientUnits="userSpaceOnUse"><stop offset="0" stop-color="#ba5555"/><stop offset="0.19" stop-color="#929ea7"/><stop offset="0.58" stop-color="#939393"/><stop offset="1" stop-color="#a6a6a6"/></linearGradient><linearGradient id="b6799423-2cdc-4e03-a495-943ac6302444" x1="3279.42" y1="-1582.58" x2="3045.9" y2="-1345.81" gradientTransform="matrix(0.07, 0.06, 0.07, -0.09, -29.49, -162.3)" gradientUnits="userSpaceOnUse"><stop offset="0" stop-color="#9d7272"/><stop offset="0.19" stop-color="#929ea7"/><stop offset="0.58" stop-color="#939393"/><stop offset="1" stop-color="#a6a6a6"/></linearGradient><radialGradient id="b496d106-fc7e-4543-a042-fea63fdef0fc" cx="-1314.6" cy="15.08" r="7.08" gradientTransform="matrix(0.01, -0.27, -1.11, -0.04, 101.92, -191.32)" gradientUnits="userSpaceOnUse"><stop offset="0" stop-color="#792632"/><stop offset="1" stop-color="#c3323e"/></radialGradient><linearGradient id="b618ba6e-d610-4ae3-b29f-baa8fb59ad4c" x1="206.61" y1="-962.19" x2="204.91" y2="-819.18" gradientTransform="matrix(0.37, 0, 0, -0.57, -5.13, -372.14)" xlink:href="#b2a964b5-26c5-448b-8a69-24128634e126"/><linearGradient id="a3bfe912-9005-4c1e-a028-eb9c2be52413" x1="805.68" y1="-1725.03" x2="819.39" y2="-1727.03" gradientTransform="matrix(0.16, 0, 0, -0.18, -49.82, -191.64)" xlink:href="#e5a6c7ec-2ab5-4ecb-9d0c-419cc45ee1b7"/></defs><title>glass</title><g id="b658d375-5d5e-4f89-a923-05b50f92bd27" data-name="layer1"><g id="ad93e1a7-e6f5-4893-b3f5-3566413bc32b" data-name="g8422"><g id="ba3c34a9-eb86-423a-87cf-6b567b074923" data-name="g17140"><g id="f40065bb-3d0f-4730-9336-1e977eeff3b2" data-name="g16344"><path id="a5462577-6527-4d84-99b2-ee44694a6032" data-name="path18577-8" class="a3194501-2510-4fe2-9e6d-5c1dc0022ee3" d="M59.72,74.3c-1.4,0-2.75.06-3.87.12-6.52.13-13.52,6.56-16.52,14.49-.81,3.49-1,5.85-.14,11.18a16.56,16.56,0,0,0,3.88,7.63,40.63,40.63,0,0,1,5.21-3.9,20.55,20.55,0,0,0,5-2.62,62.39,62.39,0,0,0,4.75-5.53,12.12,12.12,0,0,0,3-3.19,26,26,0,0,0,2.12-2,145.09,145.09,0,0,1,8.57-12.55,21.62,21.62,0,0,0-5.47-2.69A18.45,18.45,0,0,0,59.72,74.3Z" transform="translate(-38.61 -64.9)"/><path id="fd8c10c1-98c7-44bd-b945-ef6c31f4b55e" data-name="path18579-9" class="eabfd197-2666-4d42-bb9e-f654b202b83a" d="M59,75c-5.89.07-11.55,2.73-13.79,6.71A13.48,13.48,0,0,0,43,84.53c-2.74,2.8-2.76,5.64-3.28,9.5-.55,5.85,1.65,9.74,4.13,13a41.68,41.68,0,0,1,4.45-3.24,20.55,20.55,0,0,0,5-2.62,62.39,62.39,0,0,0,4.75-5.53,12.12,12.12,0,0,0,3-3.19,26,26,0,0,0,2.12-2c2.51-4.14,5.09-7.89,8-11.84a13,13,0,0,0-6.32-2.75A18.74,18.74,0,0,0,59,75Z" transform="translate(-38.61 -64.9)"/><path id="bb798002-4bc8-45c2-a1d3-db1e484eb4cd" data-name="path18581-5" class="ac222a7b-3f16-4e05-b391-20abffacf407" d="M58.12,77.2c-.46,0-1,.2-1.72.25-2.26-.3-3.19.09-5,1.56a4.1,4.1,0,0,0-2,1.53c.23.78-.08,1,1.19,1.42a31.48,31.48,0,0,0,2.17,2.73c1.1,1.88,2.72,3.39,4.06,5.94,1.2,1.83,1.54,2.39,2.2,1.43,1-3.76,1-9.54.7-9.72-.26-1.19.27-1.67-.15-3.61-.39-1.12-.79-1.47-1.29-1.52Zm4.29.15a6.71,6.71,0,0,0-1.47.19,1.45,1.45,0,0,0-.8,1.34,6.59,6.59,0,0,1,0,2.08c.2.86.1,1.83.22,2.52a32,32,0,0,1,0,3.8c-.16,1.25-.39,2.43-.56,3.67.43,2,.93,1.68,1.8.52a9.69,9.69,0,0,0,2.15-2.14,34.84,34.84,0,0,0,2.14-3.59c.66-.67,1-1.9,1.59-2.55.58-1.2,1.28-1.6,1.21-2.82a2.73,2.73,0,0,0-1.32-1.56,7.61,7.61,0,0,1-1.51-.06,7.66,7.66,0,0,0-2.59-1.32l-.31-.05A4.53,4.53,0,0,0,62.41,77.35Zm-13.8,4c-.74,0-.9.57-1.5.9a3.86,3.86,0,0,0-.63,1c-1.2.29-1.57,1-1.94,2.09.11,1,.74,1.31,1.51,1.66a25.28,25.28,0,0,0,2.57,1.45,4.75,4.75,0,0,1,2.62,1.11l2,1.25a3.1,3.1,0,0,0,1.91,1.22,3.32,3.32,0,0,0,1.2.86c.82.07.71-.19.73-.81a13.37,13.37,0,0,0-2-3.38,30.32,30.32,0,0,0-2.57-3.53,13.48,13.48,0,0,0-2-2.56C49.87,82.34,49.23,81.68,48.61,81.35Zm-4.47,5.71a2.48,2.48,0,0,0-.81.16c-.66.29-.66.79-.75,1.49a2.15,2.15,0,0,0-.48,2.49c-1.2,2.6-.21,3.14,2.34,3.22a4,4,0,0,1,1.9-.29,17.1,17.1,0,0,1,4,.74A6.47,6.47,0,0,0,53,94.82c1.34.13,3,.14,3.47-.64-.37-.88-1-1.14-1.65-1.61-1.21-1.28-2.6-1.55-4-2.47C50,89.68,49,89,48.33,88.58c-1-.37-1.95-.8-2.88-1.22l-.28,0a2.14,2.14,0,0,0-.74-.3Zm-.52,7.84a3.51,3.51,0,0,0-1.58.38,2.11,2.11,0,0,0-.38,1.26,8,8,0,0,1,.71,2,13.49,13.49,0,0,0,.69,2,1.75,1.75,0,0,0,1.44,1.16,4.45,4.45,0,0,0,1.5,1.73,2.68,2.68,0,0,0,2.73-.33,10.3,10.3,0,0,0,3.57-1.81c1.83-1.22,2.3-1.85,4.61-4.5-.3-.47-.12-.84-.55-1a2.88,2.88,0,0,0-.4-.09,5.78,5.78,0,0,0-1.18,0l-2-.27a3.45,3.45,0,0,1-1.55.21,7,7,0,0,0-2.71-.44,11.14,11.14,0,0,0-3.09-.13A10.61,10.61,0,0,0,43.62,94.9Zm9.68,6.3-.17.07a4.71,4.71,0,0,0-.56.44Z" transform="translate(-38.61 -64.9)"/><path id="aed3c344-6cf7-4f81-9ded-cb304cbbb2be" data-name="path18583-85" class="ad84e3e1-64f5-40f7-8921-15c27b3c5b89" d="M58,77.15a1.74,1.74,0,0,0-1.1.39,1.72,1.72,0,0,0-1.92.12,2,2,0,0,0-1.64.13,1.68,1.68,0,0,0-1.66,1,1.2,1.2,0,0,1-1,.55A3.18,3.18,0,0,0,50,80.73c-.28.29,0,.46,0,.65.42.65,1.11.87,1.53,1.49a11.76,11.76,0,0,1,1.3,1.84,16.54,16.54,0,0,0,2,2.68c.38.72.94,1.27,1.25,2A21.24,21.24,0,0,1,58,92.63c.37.17.56-.06.85-.13.28-.22.29-.46.38-.81a9.61,9.61,0,0,0,.42-4.1c.6-1,.24-1.85.19-2.78.25-1.19.52-2.27-.14-3.31a5.52,5.52,0,0,0-.59-3.88,1.5,1.5,0,0,0-.86-.46Zm5.37.24a3.49,3.49,0,0,0-.93.11c-2.55-.23-1.75,1.52-2,3.09,0,1.49.07,3,0,4.51A17,17,0,0,1,60.56,87a26,26,0,0,0-.4,5.53.82.82,0,0,0,.48.49c.14-.19.27-.37.38-.55.72-.65,1.32-1.18,1.91-1.82l0,0a1.43,1.43,0,0,0-.78.37,7.15,7.15,0,0,1,2-2.19c.61-1,1.23-2,1.87-2.9.41-1.49.63-3,2-4.2,0,.52-.17,1-.2,1.52l.21-.32a3.57,3.57,0,0,0,.1-.35c.82-1.66.83-2-.5-3.28-.46-.7-1.14-.82-2-1.08a1.39,1.39,0,0,0-.46-.37l-.08,0a4.81,4.81,0,0,0-1.38-.39ZM56,77.54a1.09,1.09,0,0,1,.4.29,5.15,5.15,0,0,0-.08,2c-.1,0-.14-.1-.23-.15C55.69,78.91,54.92,77.86,56,77.54Zm7.55,0a.55.55,0,0,1,.17,0,1.4,1.4,0,0,1,.32.19,2.67,2.67,0,0,0-.67,1.09C63,78.38,63.06,77.54,63.57,77.59Zm-1.75.07c.64.69.12,1.33,0,2.24A3.43,3.43,0,0,1,61.21,78,1.53,1.53,0,0,1,61.82,77.66Zm1,0c0,1.21.58,2.45.13,3.67,0-.52-.5-.88-.62-1.37A4.09,4.09,0,0,1,62.84,77.67Zm-5.5.12c.7.86.57,1.47.69,2.56A4.6,4.6,0,0,1,57.34,77.79Zm-.62.08c.55.32.47.94.57,1.53a4.17,4.17,0,0,1,.19.85,7.84,7.84,0,0,1-.23,1.07c0-.53-.37-.94-.69-1.36A10.35,10.35,0,0,1,56.72,77.87Zm-2.84,0a2,2,0,0,1,.89,1.76c0,.35.15.77.17,1.16a4.51,4.51,0,0,1-1.15-1.59C53.7,78.8,53.54,78.32,53.88,77.91Zm1,0a7.35,7.35,0,0,1,.88,1.69A3.77,3.77,0,0,1,56.14,81a4.5,4.5,0,0,1-1-.95A4.28,4.28,0,0,1,54.93,77.91Zm-1.85.15c.5.4.35,1.27.4,1.91C53,79.49,52.09,78.52,53.08,78.06Zm11.66,0h.12l.09,0,.13.08a1.92,1.92,0,0,0,.16,1,.94.94,0,0,1-.35,1,8,8,0,0,1-.3-2.08Zm-6.52,0c1.13.24,1.19,2.33,1.13,3.27A3.94,3.94,0,0,1,58.22,78.12Zm6,0a10,10,0,0,1,.48,1.46c-.13.47-.1.92-.58,1.25a1.61,1.61,0,0,0-.45-.78A1.78,1.78,0,0,1,64.19,78.17Zm2.4.46h.09a.59.59,0,0,1,.2,0c.54.24.32,1.1-.15,1.59a3.74,3.74,0,0,1-.49-1.62A1.08,1.08,0,0,1,66.59,78.63Zm-14.34.05a1.92,1.92,0,0,1,.15.79,7.11,7.11,0,0,0,.47,1.59,3.35,3.35,0,0,0-.87-.37A1.43,1.43,0,0,1,52.25,78.68Zm8.7,0c.37,1,.5,1.07.43,1.52a5.28,5.28,0,0,1-.62,2.49,2.87,2.87,0,0,0-.09-1.18C60.71,80.61,60.94,79.45,61,78.69Zm4.92.24c.11.62.53,1.21.4,1.76a4,4,0,0,1-.79,1.13,6.16,6.16,0,0,0-.31-1.33A10.24,10.24,0,0,0,65.87,78.93Zm-12.25.4c.19.73,1.26,1.64,1.62,2.29.71.71.54,1.53.43,2.38-.15-.62-.94-1.45-1-2.08A4.11,4.11,0,0,1,53.62,79.33Zm-.94,0c.17.49.62.72.87,1.15a12.78,12.78,0,0,0,.79,1.28A10.32,10.32,0,0,1,54.85,83a5.72,5.72,0,0,0-1.14-1A3.44,3.44,0,0,1,52.68,79.35Zm-1.48,0c.24.13.44.89.5,1.29C50.44,80.32,50,80.05,51.2,79.36Zm5,.6a9.3,9.3,0,0,1,1.72,4.53A9.1,9.1,0,0,1,56.18,80Zm1.56.28a9.09,9.09,0,0,1,.64,2.46,8.31,8.31,0,0,1-.29,1.58c-.21-.88-.42-1.77-.58-2.66A13.24,13.24,0,0,0,57.74,80.24Zm.61,0a16.61,16.61,0,0,1,1,1.62,3.86,3.86,0,0,1,.24,2.4,1.88,1.88,0,0,0-.11-.62C59.14,82.47,58.41,81.55,58.35,80.25Zm8.84,0a3,3,0,0,1-.43,2.56C66.52,82,67.18,81.13,67.19,80.3Zm-2.37,0c.15.35.23.65.39,1a8,8,0,0,1-.46,1.94A6.11,6.11,0,0,0,64.32,82,2.93,2.93,0,0,1,64.82,80.34Zm-2.71,0a6.78,6.78,0,0,1,.94,4.23,5.44,5.44,0,0,0-1-1.81C62.18,82,62,81.16,62.11,80.38Zm-7,0a4.14,4.14,0,0,1,1,.76c0,.55.32,1,.36,1.53-.22-.07-.37-.46-.53-.59C55.23,81.53,55.3,81.25,55.16,80.41Zm8.38,0c.37.28.35.65.47,1.12s.28,1.13.28,1.66-.22,1.23-.4,1.84a8.7,8.7,0,0,0-.52-2.73A5.85,5.85,0,0,1,63.54,80.45Zm-13,.2.48.06a3.32,3.32,0,0,1,2.59,1.48,2.07,2.07,0,0,1,0,.61,8.74,8.74,0,0,0-1.92-1.41A3.5,3.5,0,0,0,50.49,80.65Zm11.37,0A12.06,12.06,0,0,1,61,85a2,2,0,0,1-.34-1.34A13.71,13.71,0,0,1,61.86,80.7ZM50.29,81a3.33,3.33,0,0,1,1,.51,3,3,0,0,0,.55,1.13C51.31,82.14,50.56,81.69,50.29,81Zm16.13.1c.42.87,0,2.37-.42,3.22A10,10,0,0,0,64.94,86C65.2,84.22,64.69,82.57,66.42,81.12Zm-18.35.18c-.56,0-.87.33-1,1.15-1.25.19-.41.42-.72.72s-.87.22-1.2.66a3.72,3.72,0,0,1-.76,1.74c.15,1,1.41,1.4,2.18,1.87a11.12,11.12,0,0,0,2.66,1.18,7.31,7.31,0,0,1,2.4,1.44,15.61,15.61,0,0,1,1.71.92,15,15,0,0,0,1.25,1,3.76,3.76,0,0,0,2.23,1c.49-.46.15-.36.3-.71a8.66,8.66,0,0,0-.6-1.4,3,3,0,0,0-.61-1.1c-.25-.24-.43-.45-.66-.71-.49-.89-1.12-1.67-1.67-2.49s-.93-1.55-1.73-2a5.73,5.73,0,0,0-2-2.24c-.34-.24-.65-.53-1-.79a5.58,5.58,0,0,0-.57-.13A1.15,1.15,0,0,0,48.07,81.3Zm10.29.08a19.87,19.87,0,0,1,1.07,2.91,2,2,0,0,1-.16.69c-.08.09-.13.34-.26.34C58.85,84.41,58.76,84,58.36,81.38Zm-10.15.28a1,1,0,0,1,.48.88,2.76,2.76,0,0,1-1.16-.47C47.87,81.71,47.69,81.79,48.21,81.66Zm3.6.3a4.32,4.32,0,0,1,1.95,1.53,7,7,0,0,1,.65,1.12,2.72,2.72,0,0,1,.55.45,5.26,5.26,0,0,0-1.26-.57A3.41,3.41,0,0,1,51.81,82ZM49,82.31c.65.5,1.59,1,1.41,2.12a1.78,1.78,0,0,1-.59-.63A1.46,1.46,0,0,1,49,82.31Zm4.91.09A5.92,5.92,0,0,1,56,85.92C55.24,84.67,53.7,84.21,53.89,82.4Zm-6.64,0c.87.3,1.7.42,2.14,1.33-.55.15.9.09-.52.14a2.85,2.85,0,0,0-.56-.26C47.88,83.32,47.36,83,47.25,82.42Zm8.86.18c.29.77.28,1.55.55,2.36-.13.37-.27.71-.42,1.09a6.06,6.06,0,0,1-.32-2.2C56,83.43,56.07,83,56.11,82.6Zm-9,.08a7.32,7.32,0,0,0,.88,1C47.06,83.51,46.7,83.67,47.09,82.68Zm16.23.24a4.38,4.38,0,0,1,.15.84,4.66,4.66,0,0,1-.06,2.48,10.11,10.11,0,0,1-.14-1.59A3.48,3.48,0,0,1,63.32,82.92Zm-6.71,0a6.88,6.88,0,0,1,1.73,3.52,1.83,1.83,0,0,1-1.18-1A6.74,6.74,0,0,1,56.61,82.93Zm5.39.25c.48.31.51.81.61,1.24a4,4,0,0,1-.88,2.77C61.13,85.92,61.77,84.5,62,83.18Zm-11.78.16a5.3,5.3,0,0,1,2.27,2.46,4.89,4.89,0,0,0-.84-.32,3.66,3.66,0,0,1-.81-.91A3.66,3.66,0,0,0,50.22,83.34Zm14.53.24a5.37,5.37,0,0,1-.6,3.59,2.58,2.58,0,0,1-.32-1A2.8,2.8,0,0,1,64.14,85,10.85,10.85,0,0,1,64.75,83.58Zm-18.24.07c.43.28.86.4,1.29.67a7.27,7.27,0,0,0,1,.59,5.11,5.11,0,0,0,.51.64c-.32-.11-.68-.21-1-.34s-.78-.53-1.2-.73A1.17,1.17,0,0,1,46.51,83.65Zm-.44,0a1.35,1.35,0,0,1,.44.76c-.29,0-.35.16-.53.32C46,84.39,46.05,84,46.07,83.67Zm12.48,0c.14.9.29,1.83.47,2.76-.05.38-.12.76-.2,1.13-.12-.92-.55-1.81-.67-2.7A2.59,2.59,0,0,1,58.55,83.71Zm-11.24,0c.31.07.62,0,.92.07l.13,0a4.21,4.21,0,0,0,.48.35c0,.28.15.35.23.55A4.32,4.32,0,0,1,47.31,83.73Zm-1.53,0c0,.44.1.75,0,1.18C44.82,84.88,45.14,84,45.78,83.73Zm3.68.26c.73.19.88.86,1,1.51-.72-.44-1.19-.62-1.37-1.46C49.23,84.12,49.31,84,49.46,84Zm-2.91.65h.1l.14,0c.29.44.36,1.12.71,1.5a3.85,3.85,0,0,1-1.41-1.1C46.27,84.83,46.33,84.65,46.55,84.64Zm7.05,0A6.54,6.54,0,0,1,56,86.28c.11.32.29.53.21.87-.34-.39-.86-.65-1.24-1.06S54.23,85,53.6,84.69Zm-3.12,0a3.89,3.89,0,0,1,1.74,2.34c-.17.17-.08.19-.34.16a3,3,0,0,0-1.06-1.36A2.24,2.24,0,0,1,50.48,84.73Zm-3.19.12A17.52,17.52,0,0,1,48.94,86a5,5,0,0,0,.61,1.44,2.54,2.54,0,0,1-1.39-.68A3,3,0,0,1,47.29,84.85Zm1.69,0a7.14,7.14,0,0,1,2.78,2.49c-.41-.24-.9-.16-1.23-.53C49.92,86.21,49.73,85.38,49,84.86Zm4.45,0a2.5,2.5,0,0,1,.78.69,4.49,4.49,0,0,1,.46,1.12C54.3,86.07,53.48,85.69,53.43,84.9Zm-8.49,0a2.29,2.29,0,0,1,1,.52c.53.49,1.53.68,1.79,1.36a5.18,5.18,0,0,1-1.3-.51,3,3,0,0,0-1.22-.22C44.67,85.79,44.83,85.4,44.94,84.92Zm14.54.18a3.79,3.79,0,0,1,.06,2.19,4.34,4.34,0,0,1-.37-1.76C59.23,85.32,59.26,85.2,59.48,85.1Zm3.57.12a3.68,3.68,0,0,0,0,.75,7.14,7.14,0,0,1-.62,2.42,9.73,9.73,0,0,0-1,1.46,13.05,13.05,0,0,0,.27-1.72,13.24,13.24,0,0,0,.51-1.37A11.91,11.91,0,0,1,63.05,85.22Zm2.84.08a9.28,9.28,0,0,1-1.64,2.82C64.71,87.18,65,85.92,65.89,85.3Zm-9.17.3c.06.44.12.89.17,1.34.2.66.06,1.32.28,2-.22-.19-.18.22-.48-.3C56.45,87.88,56.2,86.11,56.72,85.6Zm-7.63.16a2.45,2.45,0,0,0,.54.26,3.77,3.77,0,0,1,.83,1.18c.23.25.43.5.65.76A5.92,5.92,0,0,1,50,87.43C49.34,87.19,49.46,86.26,49.09,85.76Zm2.75,0c.86.39,1.15,1.11,1.59,1.9a2.54,2.54,0,0,1-1-.49A4.74,4.74,0,0,0,51.84,85.8Zm5.29.06c.38.44.95.65,1.2,1.22.31.36.22.86.29,1.31a4.79,4.79,0,0,1-.09.84C58.21,88.11,57.57,87,57.13,85.86Zm-4.37.06c.71,1,1.46,1.93,2.18,2.92a4.93,4.93,0,0,1-1-.66,3.56,3.56,0,0,1-.5-.9C53.14,86.84,53.05,86.39,52.76,85.92Zm1.86.29a7.16,7.16,0,0,1,1.16.93,7,7,0,0,1,.71,1.39,2.07,2.07,0,0,0-.54-.15C55.13,87.85,55.11,86.94,54.62,86.21Zm-9,.05a8.7,8.7,0,0,1,2.08.8c.26.13.32,0,.43.45l.71.54a11.23,11.23,0,0,1-1.72-.54C46.68,87.1,46.12,86.66,45.64,86.26Zm18,.11a8.61,8.61,0,0,0,.27.85,1.11,1.11,0,0,1-.17,1,6.24,6.24,0,0,1-.72.66C63.24,88.06,62.87,86.89,63.65,86.37Zm-2.48.27a4.12,4.12,0,0,1,.22.76,19.68,19.68,0,0,1-.53,4.18c.07-.43-.17-.76-.17-1.2a4.08,4.08,0,0,1-.06-1.84C60.86,87.92,60.94,87.25,61.17,86.64Zm-4,.09a9.19,9.19,0,0,1,1.29,3.18c0,.65.24,1.24.28,1.94-.55-.32-.67-1-.82-1.63a5.61,5.61,0,0,1-.59-2A8.94,8.94,0,0,1,57.13,86.73Zm2.17.3a10.65,10.65,0,0,1-.41,4.8,10.45,10.45,0,0,1,0-3.06C59,88.18,58.91,87.48,59.3,87ZM44.11,87c-.76,0-1,.11-1.51.78a8.44,8.44,0,0,1-.2,1.24,2.57,2.57,0,0,0-.58,2.41c-.66,1.66-.44,2.26,1,2.92A13,13,0,0,0,46,94.23a7.32,7.32,0,0,1,3,.28,22.65,22.65,0,0,0,2.79.49c.65,0,1.11-.09,1.68-.14a5.08,5.08,0,0,0,1.86.11,2.74,2.74,0,0,0,1-.7c0-.31,0-.32-.14-.59-.47-.41-1-.76-1.46-1.17a12.1,12.1,0,0,0-1.87-1.45,14.1,14.1,0,0,0-2.11-.93,7.46,7.46,0,0,0-1.91-1.38,9.57,9.57,0,0,1-1.22-.56,4.06,4.06,0,0,1-1-.27,4.66,4.66,0,0,0-2.16-.87Zm4.14.13a7.25,7.25,0,0,1,1.52.7,6.51,6.51,0,0,1,1.32,1,7.34,7.34,0,0,0-1-.34,2,2,0,0,1-1.1-.67A2.81,2.81,0,0,1,48.25,87.16Zm2.49.07h.08a3.12,3.12,0,0,1,1.06.43,2.29,2.29,0,0,0,.64.64,3.18,3.18,0,0,0,.26.73c-.36-.25-.7-.42-1.08-.64C51.15,87.51,51.49,87.92,50.74,87.23Zm-7.19.18a3.53,3.53,0,0,1,.92.14,3,3,0,0,1,.43,0A3.59,3.59,0,0,1,46,88c-.73,0-3.55.57-2.56-.56Zm8.48.1a5.11,5.11,0,0,1,1,.27,2.16,2.16,0,0,1,1,1c.14.24.28.56.44.78a4.8,4.8,0,0,1-1.56-1.14L52.59,88A1.87,1.87,0,0,0,52,87.51Zm-2.18.13a15.05,15.05,0,0,1,2.83,1.6A5.43,5.43,0,0,1,54,90.4a2.8,2.8,0,0,1-.9-.2,4,4,0,0,1-1.82-1.36A11.37,11.37,0,0,0,49.85,87.64ZM42.94,88a6.68,6.68,0,0,0,1.49,1,3.91,3.91,0,0,1-1.68-.19A1.81,1.81,0,0,1,42.94,88Zm1.55.24c.53,0,1.06,0,1.59,0a8.42,8.42,0,0,1,2.86,1.29,19.46,19.46,0,0,1-5.39-1.27A7.3,7.3,0,0,1,44.49,88.2Zm18.25.32c.17,1.38-.87,2.48-1.61,3.42A5,5,0,0,1,62.74,88.52Zm-8.45.15a7.43,7.43,0,0,1,2.63,3.61c-.6-.14-.83-.81-1.06-1.34A5.69,5.69,0,0,1,54.29,88.67Zm1.92,0a3.48,3.48,0,0,1,.79.79c.07.54.27,1,.38,1.55A6.78,6.78,0,0,1,56.21,88.68ZM53,88.84a6.71,6.71,0,0,1,2.28,1.81,1.86,1.86,0,0,1,.47.59l.17.25c-.39-.57-1.64-.83-2.1-1.55A4,4,0,0,1,53,88.84Zm-8.3,0a9.64,9.64,0,0,0,1.67.52,5.22,5.22,0,0,1,.46.85c-.58-.22-1.1-.42-1.91-.79C44.53,89.29,44.72,89,44.69,88.88ZM43,89.13h.16a7.07,7.07,0,0,1,1.1.3c.65.24,1.27.56,1.91.83.18,0,.27.16.4.24a9.13,9.13,0,0,0-1.65-.08A5,5,0,0,0,43.86,90a6.66,6.66,0,0,0-1.42-.44A4.63,4.63,0,0,1,43,89.13Zm14.17.1c.06.07.34.31.35.56a1.64,1.64,0,0,1,.17.64,4.44,4.44,0,0,1-.42-.55A2.68,2.68,0,0,1,57.17,89.23Zm-9.74.42a9,9,0,0,1,1.37.08,4.45,4.45,0,0,1,.66,0,2.64,2.64,0,0,1,1.36.79c-.55,0-1.12,0-1.67.06A2.8,2.8,0,0,1,47,89.66Zm-4.83.2h.19a7.09,7.09,0,0,1,.84.25c.56.31,1.08.59,1.6.94a6.14,6.14,0,0,1-1.53-.17,3.12,3.12,0,0,0-.75-.06,2.47,2.47,0,0,0-1.07-.36C42.1,90,42.32,89.85,42.6,89.85Zm14.81.56a4.18,4.18,0,0,1,.71,1,2,2,0,0,1,.36.61c-.07.16-.18.06-.27.08A3.48,3.48,0,0,1,57.41,90.41Zm-3.82.15a15,15,0,0,1,1.89.64l.09.14c-.4-.11-.83-.15-1.21-.29S53.86,90.71,53.59,90.56Zm-6.53,0,1.37.17c.45.06.91.13,1.35.23a19.48,19.48,0,0,0,2.16,1.16c-1-.27-2-.39-3-.73C48.39,91.2,47.67,90.87,47.06,90.61ZM42,90.76l.43,0a2.27,2.27,0,0,1,.73.21,3.28,3.28,0,0,0,.79.83,3.65,3.65,0,0,1-1.47-.34C42.19,91.26,42,91.12,42,90.76Zm8.12,0,.9.09a4.32,4.32,0,0,1,2.45,1,2.83,2.83,0,0,1,1.1.69l.3.22h0a5.8,5.8,0,0,1-2.05-.57C51.69,92.06,51,91.21,50.07,90.76Zm-4.8,0a9.58,9.58,0,0,1,1.42.08l.21,0,.23,0a6.34,6.34,0,0,0,1.43.63,7.54,7.54,0,0,0,1.1.68,4.76,4.76,0,0,1-1.19,0C47.19,92.15,46.36,91.26,45.27,90.77Zm9,.39c.64.32,1.49.26,1.91.86a2.84,2.84,0,0,1,.74.52A1.72,1.72,0,0,1,55.3,92,2.72,2.72,0,0,1,54.24,91.16Zm-10.63.11c.59,0,1.06,0,1.61,0l.4.07a12.32,12.32,0,0,1,1.89.94,2.7,2.7,0,0,1-2,0A4.75,4.75,0,0,1,43.61,91.27Zm-1.37.57a3.57,3.57,0,0,1,.46,0c.66.09,1.29.35,2,.47a1.74,1.74,0,0,0-1,.3c-.66.11-1.19.44-1.87.18A1.55,1.55,0,0,1,42.24,91.84Zm7.42.1c.64.09,1.28.22,1.9.36a6.21,6.21,0,0,0,1.37.29,12.68,12.68,0,0,1,2.48.62c.21.22.49.43.67.6a15.61,15.61,0,0,1-1.93-.11,9.86,9.86,0,0,0-2.33-.93A5,5,0,0,1,49.66,91.94Zm-4.7.63.51.06A6.08,6.08,0,0,1,47,93a2.66,2.66,0,0,1-1.38.32c-.21,0-.39-.21-.63-.15a15.25,15.25,0,0,1-2.34-.07C43.54,92.88,44,92.81,45,92.57Zm4.06,0a8.59,8.59,0,0,1,1.24.07,6.31,6.31,0,0,1,1.49.39c.71.09,1.3.47,2,.59a4.78,4.78,0,0,0-1.51,0c-.75-.08-1.5-.14-2.24-.26a21.28,21.28,0,0,1-3-.67C47.65,92.65,48.33,92.59,49,92.59Zm-4.09.79h.24a4.73,4.73,0,0,1-1.55.8C40.76,93.81,43.63,93.38,44.93,93.38Zm1.93,0c1,0,2.06.17,3.08.21-.29.15-.6.33-.86.5-1.29-.31-2.75,0-4-.39A4.86,4.86,0,0,1,46.86,93.39Zm4.3.26.23,0h.11l.33.07a3.07,3.07,0,0,1-2.28.59l.13-.16A2,2,0,0,1,51.16,93.65Zm2.12.08h.16a.45.45,0,0,1,.16,0,1.89,1.89,0,0,1-1.39.71,3,3,0,0,1-1.12,0A5.47,5.47,0,0,1,53.28,93.73Zm1.39.23a9.15,9.15,0,0,1,1.38.1,2.92,2.92,0,0,1-1.44.49,7.23,7.23,0,0,1-1.8,0,1.93,1.93,0,0,0,1-.48A3.75,3.75,0,0,1,54.67,94Zm-11.4,1a7.58,7.58,0,0,0-.84,0c-.8.33-.81,1.37-.57,2.13a28.67,28.67,0,0,1,.86,3,2.66,2.66,0,0,0,1.66,1.63,4.06,4.06,0,0,0,3.08,1.78,23.86,23.86,0,0,0,3.18-.83,4.49,4.49,0,0,1,2-1.33c.34-.37.61-.75.94-1.1a3.43,3.43,0,0,0,1.52-1.09c.44-.53.73-1,1.17-1.51.53-.82.49-.63.57-1.29-.2-.56-.17-.5-.62-.74a14.31,14.31,0,0,1-3.06-.3,3.52,3.52,0,0,1-1.11.18,8.84,8.84,0,0,1-1.71-.13c-1-.17-2.16-.32-3.16-.38-1.27,0-1.46,0-2.46,0A11.62,11.62,0,0,0,43.27,94.92Zm0,.27h.25a1.67,1.67,0,0,1,.58.22,14,14,0,0,1-2.13.72v-.1l.13-.43A2.67,2.67,0,0,1,43.31,95.19Zm4.58.09.37,0a2.78,2.78,0,0,1,.5.11,2.48,2.48,0,0,0-.62.56,7.33,7.33,0,0,0-1.53.12,3.12,3.12,0,0,1-2-.53,15.61,15.61,0,0,1,2.16-.19A6.11,6.11,0,0,1,47.89,95.28Zm2.2.27a2.06,2.06,0,0,1,.35,0,2.29,2.29,0,0,1,.64.18,5.79,5.79,0,0,1,.83,0,1.59,1.59,0,0,1-.78.31,2.57,2.57,0,0,0-.71.23c-.67-.09-1.33-.19-2-.24.34-.23,0-.2.64-.43A9,9,0,0,1,50.09,95.55Zm4.57,0,1.51.2a5.69,5.69,0,0,1-1.57.27,2.2,2.2,0,0,1-1.07-.36A3.08,3.08,0,0,0,54.66,95.6Zm-1.78.25a.67.67,0,0,1,.2,0,5.64,5.64,0,0,1,1,.36,7.79,7.79,0,0,0-1.51.54c-.56,0-1.73.21-1.94-.18a2.84,2.84,0,0,1,1.51-.51A1.64,1.64,0,0,1,52.88,95.85Zm-8.57,0c.59.08,1,.45,1.63.38-.56.31-1.1.48-1.69.77a4.09,4.09,0,0,1-1-.07,2.07,2.07,0,0,1-1.09-.53A4.79,4.79,0,0,1,44.31,95.88ZM56.26,96a2.25,2.25,0,0,1-1.23.58,20.18,20.18,0,0,1-2,1,9.35,9.35,0,0,1-1.92.4c.8-.91,2.22-1.11,3.27-1.64A18.6,18.6,0,0,1,56.26,96Zm.12.13c-.1.34-.36.53-.58.84a2.83,2.83,0,0,1-1.14.65,2.17,2.17,0,0,1-1.14.33c.11-.11.23-.26.34-.39a3.17,3.17,0,0,1,1.56-.85A3.42,3.42,0,0,0,56.38,96.1Zm-9.06.08a2.16,2.16,0,0,1,.44,0,2,2,0,0,1,.4.1,3.5,3.5,0,0,0-.55.73c-.54,0-1.08,0-1.62,0a5.25,5.25,0,0,1-1.67.45,4.75,4.75,0,0,1,1.71-1A3.41,3.41,0,0,1,47.32,96.18Zm9.21,0c.38,1.2-.76,1.6-1.44,2.17a2.26,2.26,0,0,1-.25-.38c.34-.42.16-.28.48-.47A3.26,3.26,0,0,0,56.53,96.21Zm-7.74.12a7.3,7.3,0,0,1,.94,0h.09a2.9,2.9,0,0,1,.57.18c0,.4-.13.13-.23.23a13.13,13.13,0,0,0-1.56.57A5.93,5.93,0,0,1,47,98c.06-.4.43-.62.75-.81a3.46,3.46,0,0,1,.7-.84Zm1.77.52A7,7,0,0,0,52,97l.1,0c-.7.33-1.09.9-1.79,1.18a27.56,27.56,0,0,1-3.82.59,9.3,9.3,0,0,1,2.29-1.11C49.34,97.33,50.06,97.11,50.56,96.85Zm-8.07.27,1.56.21a1.94,1.94,0,0,1,0,.48c-.4.19-.89.35-1.31.57C42.52,98,42.22,97.55,42.49,97.12Zm4.41.11h.33a8,8,0,0,1-.51.64c-.09,0-.2-.27-.27.06a1.65,1.65,0,0,1-.93.23,4.65,4.65,0,0,1-2.13.23,8.38,8.38,0,0,1,2.49-1A2.46,2.46,0,0,1,46.9,97.23Zm6.51.39a3.87,3.87,0,0,0-.33.64c-.56.81-1.53.93-2.34,1.24,0-.22.2-.39.31-.57a5.76,5.76,0,0,1,.35-.51A18.25,18.25,0,0,1,53.41,97.62Zm1.15.27c.1.19.19.34.28.53A2,2,0,0,1,54,99a10,10,0,0,1-1.1-.16,4.87,4.87,0,0,1,.73-.6A6.32,6.32,0,0,0,54.56,97.89ZM51,98.17h.05c.09,0,.08.18.12.22-.59.19-.57.68-.83,1.12-.58-.09-.66-.22-.8-.76a3.69,3.69,0,0,1,1-.36c.22-.21.22-.17.51-.22Zm-4.4.06a5.81,5.81,0,0,1-1.52,1c-1.95.67-2.42,1.28-2.09-.57C44.21,98.49,45.47,98.81,46.64,98.23Zm2.7.36a23.51,23.51,0,0,1-2.46.77,3,3,0,0,1-1.5.12,4.43,4.43,0,0,1,2.8-.69A4.78,4.78,0,0,1,49.34,98.59Zm5.6.06c.05.24,0,.31-.16.5a4.76,4.76,0,0,1-1.71,1c.12-.44.4-.52.72-.76a1.31,1.31,0,0,1,.35-.32A3.17,3.17,0,0,0,54.94,98.65ZM49.28,99c-1.19.53-2.61,1.75-4,1.57a1.73,1.73,0,0,1,.71-.71A14.34,14.34,0,0,0,49.28,99Zm3.39.11a7.39,7.39,0,0,0,.94,0,5.65,5.65,0,0,1-.82.95c-.4.12-.85.23-1.21.32a3.07,3.07,0,0,1-1.2-.07,1.66,1.66,0,0,1,.22-.32A11.23,11.23,0,0,1,52.67,99.11Zm-3.23.36h.09a.48.48,0,0,1,.29.12c-.47.19-1,.33-1.42.49-3,1.27-3,3-3.68,1.66.05-.53.29-.57.68-.74C46.45,101,48.47,99.47,49.44,99.47Zm-4.06.24c-.29.84-1.07,2.45-2.11.75A4.91,4.91,0,0,1,45.38,99.71Zm5.13,0c-1.25,1.16-2.87,2.43-4.63,2.51a4.61,4.61,0,0,1,1.34-1.31,6.93,6.93,0,0,1,1.63-.65A5.15,5.15,0,0,1,50.51,99.72Zm2.37.67c-.11.33-.49.56-.76.81a8.3,8.3,0,0,1-2.2.8c.12-.46.57-.72.87-1a1.6,1.6,0,0,1,1-.36C52.14,100.59,52.57,100.47,52.88,100.39Zm-2.17.29c-.16.49-.74.76-1.08,1,0,.37-.24.28-.38.44l-1,.28A3,3,0,0,1,50.71,100.68Zm2.51.58c-.56.31-1.08.67-1.59,1A16.65,16.65,0,0,0,53.22,101.26Zm-4.75.41c-.57,1-1.12,2.18-2.3,1-.18-.26,0,0,.63-.37A4,4,0,0,0,48.47,101.67Zm1.44.57a1.73,1.73,0,0,1,.32,0c-.2.19-.28.4-.68.49-.57.06-1,.19-1.62.3A2.85,2.85,0,0,1,49.91,102.24Z" transform="translate(-38.61 -64.9)"/><path id="b04d7b73-ce92-445a-9639-725b59b972a0" data-name="path18585-65" class="b8c2b85e-1906-4f51-a61b-dca132a256bf" d="M45.37,88.33a1.94,1.94,0,0,0-.66.09,3,3,0,0,0,2.47.76,3.27,3.27,0,0,0-1.6-.84Zm-.41.78c.43.4.67.89,1.41.69a2.56,2.56,0,0,0-1.3-.68Zm-1.43.42a4.14,4.14,0,0,0,1.45.85l0-.49a2.26,2.26,0,0,0-.91-.29Zm1.15,1.83a1.5,1.5,0,0,0-.65.12,10,10,0,0,0,1.42.61c0-.09.31-.3-.08-.31a2.07,2.07,0,0,1,0-.35A4.93,4.93,0,0,0,44.68,91.36Zm.68,1.37a2.69,2.69,0,0,0-1,.16,9,9,0,0,0,1.27.38l.13-.06.39-.2h0c-.59-.19-.33-.1-.06,0l-.75-.26Z" transform="translate(-38.61 -64.9)"/></g><g id="f84dc16e-bf7e-4e71-9c3d-74c51f15969f" data-name="g38925-2"><path id="bb29c811-1ab1-4ea0-81f0-ecb51db43af9" data-name="path38883-4" class="a7dcc5c1-0358-433a-bc91-283bfde4df7b" d="M90.07,82.89,79.27,101l.76.63L91.62,82.31Z" transform="translate(-38.61 -64.9)"/><path id="e8884063-d3a0-478d-9b49-594f8662c1b6" data-name="path38881-0" class="b8a384fa-fc5e-411e-bfcd-b115d3835c1a" d="M94.23,75l.61-1.49c.72-1.75,3.43-.11,2.34,1.17L95.83,76.3,94.53,76Z" transform="translate(-38.61 -64.9)"/><path id="bccfee78-503e-4ae7-8df8-5f55431100a2" data-name="path38867-4" class="ab20cc6b-10f7-4bcf-bfe1-4c23fe5408eb" d="M74.92,74.07H74.8l-1.55,0c-.47,0-.13.38.13.37L75,74.43l-.12-.36Zm2.17,2.74L76,77.12c-.32.09-.57.81.5.45l1.2-.41Zm9,3.81-1,.7c-.61.49.42.75.85.39l1-.66Zm9.67,4.89-.06.27v.9c0,1.19.62.83.62.5l0-1.08Zm7.55,5.86.41,1.21c.36,1.06.64.44.6.34l-.49-1.29Zm3.23,1.29-.32.22.8,1.41.38-.13Z" transform="translate(-38.61 -64.9)"/><path id="a4661e45-60f2-4683-ae2b-b2df451e9d38" data-name="path38858-2" class="fb5e2917-5baf-43cb-9db5-caeb54acfab2" d="M75.2,75.11v0a1.82,1.82,0,0,1,.65.35l.64.61.23.54,0,.06c.27,0,.45.2.65.29.47.45.7.24,1.13.39l.8.64.1.08,1.47.28.21,0,.39.57.89.17,1,.46h0l.77.86c.4.14.59,0,.92,0l.64.13.15,0a10.26,10.26,0,0,0,1.07.7,1.43,1.43,0,0,0,.57.16c.08.2.27.31.4.46l.79.15.73.2.72.79.15.09c.42.36.85.24,1.29.36l.43.63,2.58.5a1.77,1.77,0,0,0,.59.88,2.23,2.23,0,0,1,.52.15l.7.63.33.56.15.08.54.27.64.67c.48-.52.56,0,.87,0s.53.62.67.79c.67.26.76.58,1.14.88l.52.15.65.56.06,0a5.54,5.54,0,0,0,1.32,1.07,3.36,3.36,0,0,1,1.08.92c.68-.06.47.19.81.32l.52.43c.31-.42.51-.14.81-.23-2.91-5.16-4.84-9.42-10.5-16.63l-1.77-1c-.22.06-.38.14-.58.21a57.68,57.68,0,0,0-18.74-1.3Z" transform="translate(-38.61 -64.9)"/><path id="b7f89335-1c47-4f4f-b8ae-cb305932b71d" data-name="path38860-0" class="f1372d32-dea1-4b0e-a0b5-6fc3784c3fe4" d="M94.25,75.19c-7.43-1-13.57-1.52-19.32-1.09l.08.29a64.76,64.76,0,0,1,16.15.69c-3.92.37-4-.19-13.92,1.63l.27.39.14.1c2.87-.5,8-2.14,15.4-1.42l.17.25L85.91,80.7c.27.2.49.36.74.51l7.59-4.82.83.49c.39,3.33.46,6.15.59,8.84l.4.35.14.13c0-2.7-.12-5.68-.4-9.16a79.17,79.17,0,0,1,7.55,14.4l.36.13a79.41,79.41,0,0,0-6.64-13.43c4.83,6.58,6.5,10.19,9.17,14.74h0a.63.63,0,0,0,.27,0c-2.91-5.16-4.84-9.42-10.5-16.63Z" transform="translate(-38.61 -64.9)"/></g><g id="ab9fdbdb-b7f1-42c4-8b27-f381b97c029d" data-name="g14435-5"><path id="b7f7049a-571f-4528-8a60-70ccf03d55bb" data-name="rect18293-4-8" class="ff09338f-2687-41f9-85b5-9045c625482d" d="M86.77,73.35,75.62,108.28l2.58.59L89.28,74.14Z" transform="translate(-38.61 -64.9)"/><path id="e33633d7-4cf0-497e-8ffa-c365b63cba2c" data-name="rect14300-3" class="f56cba4d-850d-4b16-992d-f24be6b10adb" d="M96.61,65.52,96,68.09l13.85,3.11.56-2.58Z" transform="translate(-38.61 -64.9)"/><path id="b0d02ba0-bf7a-45d0-adbe-56c19247e933" data-name="path14320-9" class="fec020a0-2343-4364-be7b-6c44031fbb69" d="M96.88,65.63l-.5-.47-.59.42L95.05,65l-.58.48-.79-.59-.48.53-.85-.49-.51.6L91,65.31l-.33.58-1,.24-.08.73-.78.47.15.58-.68.48.23.85-.79.41.32.63-.73.57.24.72-.72.54.31.6-.67.51.18.59,2.3.89.57-.29-.25-.8.58-.31-.13-.85.71-.3-.27-.92.67-.17-.19-.82.68-.28-.3-.9.86.09,0-.41.29,0,.06-.41.32.12.42-.69.56.55.62-.55.63.7.71-.65.6.69.53-.44Z" transform="translate(-38.61 -64.9)"/><path id="a957d0f6-67c4-40f0-8db3-dd0e6ecf361c" data-name="path14322-8" class="bf7fff0c-ecf6-4f95-9b73-b25dc9cfb50b" d="M96.34,65.1l-.54.46,0,1.8ZM95.06,65l-.59.47.21,2.28L95.06,65Zm-1.39-.11-.48.53.3,1.71.18-2.24Zm-1.33,0-.55.57.69,1.33ZM91,65.34l-.19.35.94,1.2-.59-1.44Zm-.42.61-.94.15,1.62,1.37Zm-1,.88-.73.46,2,.92-1.29-1.38Zm-.67,1.07-.62.47,2.33.69L88.88,67.9Zm-.37,1.35-.7.36,2.5.58-1.8-.94Zm-.49,1-.8.54,2.52.5Zm-.53,1.27-.72.51,2.61.45Zm-.4,1.17-.63.49,2.47.46Z" transform="translate(-38.61 -64.9)"/></g><path id="b0ee842b-8386-42a7-a8fd-30537f43fe19" data-name="path16395" class="b13fdb9a-7ab4-415a-b9be-48205018a5df" d="M57,95.21c2.83,6.55,3.72,14.82,2.57,23.59S55,134.16,56.38,142.69c.64,4,2.31,9.85,6,12.59,3,2.23,5.84,1.42,8.62,1.42s5.62.81,8.63-1.42c3.7-2.74,5.37-8.6,6-12.59,1.38-8.53-2-15.21-3.18-23.89s-.46-17,2.35-23.59Z" transform="translate(-38.61 -64.9)"/><path id="a7ad7ec6-80d1-4274-a452-93fb92a7263e" data-name="path19815" class="adc3f0b8-1aa4-4e03-bd6d-af353a470f97" d="M57,132.05a21.94,21.94,0,0,0-.62,3.71c-1,12.66,8.63,24.89,13.9,24.12h1.87c5,.82,14.63-10.23,13.81-23.52a26.63,26.63,0,0,0-.57-4,15.34,15.34,0,0,1-6.63,4,28.15,28.15,0,0,1-15.67.16C59.84,135.54,57.49,134,57,132.05Z" transform="translate(-38.61 -64.9)"/><path id="a44af74e-383e-413e-9b48-920cfc73c689" data-name="path19817" class="e3e50265-6a8b-4a25-a93d-2672d1f39740" d="M56.3,91.28H66.7c1.4,6.17.86,20-.51,32-1.71,15.08-.75,26,1.77,32.28-5.95-.22-16-8.57-8.21-35.42C61.9,102.91,58.79,99.19,56.3,91.28Z" transform="translate(-38.61 -64.9)"/><path id="a738f5c8-13e4-4f79-814f-4d8cce782d47" data-name="path19819" class="b8bc1d12-7f61-41a4-a9db-32ba40140548" d="M86.07,91.28H75.67c-1.4,6.17-.86,20,.51,32,1.71,15.08.75,26-1.77,32.28,6-.22,16-8.57,8.21-35.42C80.47,102.91,83.58,99.19,86.07,91.28Z" transform="translate(-38.61 -64.9)"/><g id="ae471216-3f04-4382-b006-276b70aa7f64" data-name="g19821"><path id="a5034be4-c828-4e05-abed-036852fdf1f1" data-name="path19823" class="e4c723e5-4f04-4c89-bcae-71964e1558ed" d="M74.59,161.05c-.73-1-2.81.21-3.44.3L71,173.09a9.78,9.78,0,0,1,3.5.44c.14-1.79-1.73-6.55.1-12.48Z" transform="translate(-38.61 -64.9)"/><path id="aeccb0c4-2bfb-448c-ae8b-fae99e981fe1" data-name="path19825" class="e35e394f-0603-4ee7-be2f-5a39975083b6" d="M67.58,161.05c.73-1,2.94.21,3.57.3L71,173.09a8.69,8.69,0,0,0-3.3.44c-.15-1.79,1.73-6.55-.11-12.48Z" transform="translate(-38.61 -64.9)"/></g><path id="bf0601d3-2682-4bf3-84e0-08d88467f636" data-name="path19827" class="e7a0884c-61e4-4b5d-be96-3723397e76fd" d="M56.78,90.76c-.73.19-1.33.48-1.39,1,5,11.58,4.73,16.32,4.25,24.52.94-7.85,3.24-21.41,12-22.19l2.07-3.36Z" transform="translate(-38.61 -64.9)"/><path id="b084c29d-3178-4048-aacd-2bcbe43ae497" data-name="path19829" class="b7f6d798-9c38-4de1-989a-17a760995db8" d="M55.61,90.76c-.38,0-.61.48-.36,1a39.07,39.07,0,0,1,4.2,16.35c.81,13.51-3.79,19-3.92,30.81-.08,6.79,2.09,16,11.93,21.64-.36,1,.53,1.9.74,5.28.12,1.92.09,2.89-.79,6.41a10.46,10.46,0,0,0-.26,1.48c-3.54,2-6.76,4.17-11,5.44-1.4.09-1.17,1.54,0,1.54H86c1.22,0,1.45-1.45,0-1.54-4.24-1.27-7.47-3.47-11-5.44a9,9,0,0,0-.25-1.48c-.88-3.52-.91-4.49-.79-6.41.21-3.38,1.1-4.24.73-5.28,9.85-5.64,12-14.85,11.94-21.64-.13-11.86-4.73-17.3-3.92-30.81a38.91,38.91,0,0,1,4.2-16.35c.25-.54,0-1-.36-1h-31Zm.53.51H86c.64,0,.36,1,.1,1.48a45,45,0,0,0-3.78,24.66c1.11,8.68,4.47,15.36,3.12,23.89-.63,4-2.27,9.85-5.91,12.6-3,2.22-5.74,1.41-8.47,1.41s-5.52.81-8.47-1.41c-3.64-2.75-5.28-8.61-5.91-12.6-1.36-8.53,2-15.21,3.12-23.89A45,45,0,0,0,56,92.75C55.79,92.22,55.5,91.27,56.14,91.27Zm0,50c.92,4.43,2.14,9.18,5.58,12.62a26.22,26.22,0,0,0,7.6,5.45,5.16,5.16,0,0,0,3.63,0,26,26,0,0,0,7.61-5.45c3.44-3.44,4.65-8.19,5.57-12.62-.27,3-.62,12.61-11.88,19.13a18.88,18.88,0,0,1-6.23,0C56.71,153.91,56.37,144.27,56.09,141.3Zm12.52,19.52a.58.58,0,0,1,.18,0,4.43,4.43,0,0,0,4.59,0c.54-.1.77.21.62.71-1.7,5.51-.16,7.21-.16,11-.85.59-1.75,0-2.75,0s-1.9.63-2.76,0c0-3.82,1.54-5.52-.15-11-.14-.44,0-.73.43-.73Zm-1.09,13.53a7.79,7.79,0,0,0,6.86-.13,47.91,47.91,0,0,0,11.14,5.17H56.65A49.14,49.14,0,0,0,67.52,174.35Z" transform="translate(-38.61 -64.9)"/><path id="a07ea236-209c-4edb-a690-c7e146f82956" data-name="path19831" class="bbb16349-706f-4ca8-9dae-f177ca9c45b0" d="M58,180a160.18,160.18,0,0,1,27.26.1C74.06,180.78,63.55,180.76,58,180Z" transform="translate(-38.61 -64.9)"/><path id="b5666e2c-9eac-4583-ad6c-c868b4c07173" data-name="path19833" class="f287bc9e-0ea5-4b16-a3ea-9f2cd01908f5" d="M65.82,175.08c-6.09,3.12-4.24,2.36-9.73,4.39-.49.35-.64.76-.3,1.1l30.4-.13c.24-.15.48-.46,0-.9a60.57,60.57,0,0,1-10.65-4.87C71.93,172.21,68.43,173.14,65.82,175.08Z" transform="translate(-38.61 -64.9)"/><path id="affb74fa-e7d7-4a99-8a99-474ba0a370b8" data-name="path19835" class="ae63e54c-5062-447d-bc03-69e6b55e0e0c" d="M59.78,179.19a23.6,23.6,0,0,0,9-5.6A17.56,17.56,0,0,1,62,179.24Z" transform="translate(-38.61 -64.9)"/><path id="a4f5b8b5-ccb4-4623-a5df-b270965dcb9e" data-name="path19837" class="b37983de-2c3f-4403-87a1-07bdbb2e4baa" d="M60,147.48c5.44,3.45,17.36,4.13,22.35.22-2.77,3.79-5.21,6.94-11.25,7A11.8,11.8,0,0,1,60,147.48Z" transform="translate(-38.61 -64.9)"/><path id="ec25005e-fce3-45f1-b9ea-c46e25f564d5" data-name="path19839" class="b003150e-02c7-4548-9386-6b559ef2a2fd" d="M56.73,91.53c-.77,0-.75.22-.75.45H86.2c0-.18-.1-.45-.51-.45h-29Z" transform="translate(-38.61 -64.9)"/><path id="ad5f0794-73d4-4979-8ab8-8688953a1a11" data-name="path19843" class="bdbc08a0-be48-4e10-8dd5-ecedd468da47" d="M85.39,90.76c.73.19,1.33.48,1.39,1-5,11.58-4.73,16.32-4.25,24.52-.94-7.85-3.24-21.41-12-22.19l2.07-3.36Z" transform="translate(-38.61 -64.9)"/><path id="b04952ae-a1e3-4f02-9bcf-d07cccbb9458" data-name="path19847" class="a8234861-2a4d-455d-9836-62bac815ebd9" d="M62.5,154.6c3.29,2.76,5.86,5.29,8.72,5.19s5.49-2.8,8.38-5.19a18.59,18.59,0,0,1-3.25,1.06c-1.57.31-2.58-.29-5.19-.29-2.46,0-3.74.61-5.32.28A24.93,24.93,0,0,1,62.5,154.6Z" transform="translate(-38.61 -64.9)"/><path id="aab3408e-7a4a-452b-9ff4-e0c692ae666e" data-name="path19849" class="a6fe09ce-5282-46dd-8326-f5040aa3d741" d="M58.27,124.83a42.65,42.65,0,0,0-1.8,17c.88,7.06,4.37,12.66,9.44,14.49,1.67,1,.58,1.34-.46.93C59.76,154.61,52,144.37,58.27,124.83Z" transform="translate(-38.61 -64.9)"/><path id="be95179e-cae8-4762-909b-025f7a496560" data-name="path19851" class="ab7fe7cd-7e39-416e-9194-4b9e0054d99a" d="M83.82,124.83a42.83,42.83,0,0,1,1.8,17c-.88,7.06-4.38,12.66-9.44,14.49-1,1-.37,1,.46.93C82.33,154.61,90.08,144.37,83.82,124.83Z" transform="translate(-38.61 -64.9)"/><path id="b0b7c0a6-045f-45e1-9f17-f231427f5179" data-name="path19853" class="a17d6916-40a0-4dec-a11e-36cc349971ba" d="M71.63,155.77a14.77,14.77,0,0,0-2.81.16h0a4.68,4.68,0,0,0-1.76.68c1.76,0,2,1.12,4,1.12s2.27-1.12,4-1.12a3.9,3.9,0,0,0-1.6-.64,15.43,15.43,0,0,0-1.89-.2Z" transform="translate(-38.61 -64.9)"/><path id="e0b14bfc-5691-4453-9a76-b8ef3aff2589" data-name="path16422" class="e6ea5116-15a6-4a77-8a08-6563b87deede" d="M62.07,95.21c1.81,6.55,2.38,14.82,1.65,23.59s-2.91,15.36-2,23.89c.41,4,1.47,9.85,3.84,12.59,1.91,2.23,3.72,1.42,5.49,1.42s3.59.81,5.5-1.42c2.36-2.74,3.43-8.6,3.84-12.59.88-8.53-1.3-15.21-2-23.89s-.29-17,1.5-23.59Z" transform="translate(-38.61 -64.9)"/><g id="e239d910-8127-4d66-a50b-1cdcd8372153" data-name="g16457"><path id="a7008415-42de-4d4a-90ee-aeab3cbf4869" data-name="path19857" class="ae63e54c-5062-447d-bc03-69e6b55e0e0c" d="M76.44,101.38l1.9-3.31c-3.5,12.74-.58,27.47-.32,42.3C77.56,128.82,72.94,123.68,76.44,101.38Z" transform="translate(-38.61 -64.9)"/><g id="bf1a8964-9ead-41ca-932a-ec647ffa31f3" data-name="g16449"><path id="eae3e446-b00b-48fd-bba9-966f6f49ec7d" data-name="path19841" class="ae63e54c-5062-447d-bc03-69e6b55e0e0c" d="M62.79,111c.06,13-3.47,17.24-3.38,24.5.08,5.79.79,10.38,1.83,12.34-1.83-4.72-3.76-8.11-.87-22.54.43-2.11,1.82-6.79,1.6-11.94Z" transform="translate(-38.61 -64.9)"/><path id="f27b3d50-16f8-4cf8-81ad-e6c41a82b56a" data-name="path19845" class="b75ed339-a79d-40b7-9355-d851cf1c94ec" d="M78.29,90.76h1.28c-1.09,3.09-1.47,5.41-2.44,8.41A29.9,29.9,0,0,1,78.29,90.76Z" transform="translate(-38.61 -64.9)"/><path id="ee45b6b9-6ce0-439d-b725-29251d3ab1d1" data-name="path19855" class="aab68f52-d7aa-4f4d-b85f-28219a4a9c92" d="M62.9,91.3C65.18,98,66,107,65.7,115c-.42,9.91-7.59,26.7,1.57,38.21-4.92-12.15-.9-29-.35-39.44a103.85,103.85,0,0,0-1.25-22.47Z" transform="translate(-38.61 -64.9)"/><path id="fc1f29b8-1741-49aa-8f0a-af1d7f34c451" data-name="path19859" class="ae63e54c-5062-447d-bc03-69e6b55e0e0c" d="M59.31,91.31c2.94,7.42,3.17,12.88,3.15,19.23-.81-8.13-.07-9.81-3.1-16.7Z" transform="translate(-38.61 -64.9)"/><path id="a12bfe00-2ff9-49bf-ac79-462e3889d4fe" data-name="path19861" class="ae63e54c-5062-447d-bc03-69e6b55e0e0c" d="M82.94,146.41c1.61-7.83.9-13.24-.23-19.49.61,8.15,1.64,9.68-.16,17Z" transform="translate(-38.61 -64.9)"/><path id="b91355d6-9164-4667-b598-061e7466532c" data-name="path19863" class="ae63e54c-5062-447d-bc03-69e6b55e0e0c" d="M80.36,120.43c-1.62-7.82,0-17.76,2-23.49-2,7.27-2.85,16.47-1.4,20.29Z" transform="translate(-38.61 -64.9)"/></g></g><path id="ad437b82-bba3-4211-aafc-1acc8abb7d4e" data-name="path17134" class="bd95d448-3773-4ce4-81f4-ec3ff14caebd" d="M80.09,95.74,72.4,156.15l2.23.2,7.82-60.61Z" transform="translate(-38.61 -64.9)"/></g></g></g></svg>