<svg id="ba98228e-c97f-4183-9e6a-0aa1501293d1" data-name="Layer 1" xmlns="http://www.w3.org/2000/svg" viewBox="0 0 727.93 654.62"><defs><style>.e8b90b83-2dc0-4260-9db7-2c23be26ed21{fill:#ffa000;}.eb7d25e1-e149-4e2a-b8fd-393ea9fae641{fill:#282826;}.ef51d640-f705-4c82-a6e5-798ae2d5e7b2{fill:#ffce6c;}.ed007fcd-7ab5-4f89-a27c-1d1dc205378b{fill:#a8680c;}.ae4e7d4a-ac08-4f68-a6a5-be333cdc0ce2{fill:#dda23a;}.ab3f49ac-2299-49fe-97cf-8640facc0209{fill:#ffcea1;}.b792a178-46dc-4d9b-8d27-173a95710a97{fill:#111;}.a3a7ca29-bbc9-41d1-9a72-0a7e90d3351d{fill:#e8615b;}.b493c6f2-8495-4515-8b08-4290c09eb1ad{fill:#cc4848;}.b0489e99-e106-4154-9eb8-6274ad1c8f95{fill:#fff;}.a76dbccf-0be0-47e8-8883-72cee6d43780{fill:#7bad50;}</style></defs><title>pizza</title><path class="e8b90b83-2dc0-4260-9db7-2c23be26ed21" d="M876.25,559.8l-40.35-.54h-.45l-249.1-3.34a5.52,5.52,0,0,1-3.79-9.49L761.07,372.64l29.24-28.46a20.28,20.28,0,0,1,29.57,1.35,322.85,322.85,0,0,1,76.9,193A20.25,20.25,0,0,1,876.25,559.8Z" transform="translate(-173.27 -226.55)"/><path class="eb7d25e1-e149-4e2a-b8fd-393ea9fae641" d="M583.84,559.68a9.41,9.41,0,0,1-5.49-4,9.61,9.61,0,0,1-.79-9.07,9.25,9.25,0,0,1,2.15-3.11L758.2,369.7l29.25-28.46A24.39,24.39,0,0,1,823,342.87a327.06,327.06,0,0,1,77.87,195.47,24,24,0,0,1-6.75,18.08,24.54,24.54,0,0,1-17.94,7.49l-40.35-.55h-.38L586.29,560A9.92,9.92,0,0,1,583.84,559.68Zm224.85-216.6a16.16,16.16,0,0,0-6.29-.41,16,16,0,0,0-9.22,4.45l-29.25,28.46L585.43,549.36a1.37,1.37,0,0,0-.33.45,1.51,1.51,0,0,0,.14,1.38,1.29,1.29,0,0,0,1.16.61l249.1,3.35H836l40.29.55a16.08,16.08,0,0,0,11.91-5,15.9,15.9,0,0,0,4.47-12A316.79,316.79,0,0,0,816.76,348.2,16.09,16.09,0,0,0,808.69,343.08Z" transform="translate(-173.27 -226.55)"/><path class="ef51d640-f705-4c82-a6e5-798ae2d5e7b2" d="M835.45,559.25h0l-249.09-3.35-2.69,0a4.43,4.43,0,0,1-4-6.13,4.55,4.55,0,0,1,1-1.45l1.93-1.87L761.07,372.64A261.26,261.26,0,0,1,831.2,508.41v0a263.87,263.87,0,0,1,4.26,46.05C835.47,556.07,835.47,557.66,835.45,559.25Z" transform="translate(-173.27 -226.55)"/><path class="eb7d25e1-e149-4e2a-b8fd-393ea9fae641" d="M581.48,559.69a8.55,8.55,0,0,1-5.63-11.56,8.69,8.69,0,0,1,1.91-2.77l1.94-1.89L761.15,366.84l2.86,2.94a265.15,265.15,0,0,1,71.22,137.9l.06.31a269,269,0,0,1,4.28,46.48c0,1.61,0,3.22,0,4.83v.85l-1.44,3.25L583.6,560A8.88,8.88,0,0,1,581.48,559.69ZM761,378.47,583.49,551.24a.41.41,0,0,0-.1.14.44.44,0,0,0,.08.27.23.23,0,0,0,.24.12l2.69,0,245,3.3v-.59a260.78,260.78,0,0,0-4.2-45.34l-.06-.31A256.92,256.92,0,0,0,761,378.47Z" transform="translate(-173.27 -226.55)"/><path class="ed007fcd-7ab5-4f89-a27c-1d1dc205378b" d="M876.25,559.8l-40.35-.54c4.48-.11,41.36-2.21,39.72-43-4.88-120.87-85.31-172-85.31-172l11.57-5.59a20.21,20.21,0,0,1,18,6.94,322.85,322.85,0,0,1,76.9,193A20.25,20.25,0,0,1,876.25,559.8Z" transform="translate(-173.27 -226.55)"/><path class="ae4e7d4a-ac08-4f68-a6a5-be333cdc0ce2" d="M835.9,559.26h-.46l-249.09-3.35-2.69,0a4.43,4.43,0,0,1-4-6.13l1-1.45.69-.08c5.77-.7,46.48-5.63,82.64-9.06,5-.47,11.49-1.33,19-2.47,6.07-.92,12.8-2,20-3.26,14-2.41,29.56-5.29,44.92-8.24,7.3-1.4,14.56-2.81,21.56-4.19l6.24-1.24c11.49-2.29,22.12-4.44,30.93-6.24,14.92-3.05,24.64-5.1,24.64-5.1v0l4.26,46.05Z" transform="translate(-173.27 -226.55)"/><path class="eb7d25e1-e149-4e2a-b8fd-393ea9fae641" d="M583.84,559.68a9.41,9.41,0,0,1-5.49-4,9.61,9.61,0,0,1-.79-9.07,9.25,9.25,0,0,1,2.15-3.11L758.2,369.7l29.25-28.46c4-3.92,4.9-4.18,13.3-6.59,7.44-2.14,16.18,1.08,22.26,8.22a327.06,327.06,0,0,1,77.87,195.47,24,24,0,0,1-6.75,18.08,24.54,24.54,0,0,1-17.94,7.49l-40.35-.55h-.38L586.29,560A9.92,9.92,0,0,1,583.84,559.68ZM808.36,342.61a9.9,9.9,0,0,0-5.34-.07c-7.3,2.1-7.3,2.1-9.84,4.58l-29.25,28.46L585.43,549.36a1.37,1.37,0,0,0-.33.45,1.51,1.51,0,0,0,.14,1.38,1.29,1.29,0,0,0,1.16.61l249.1,3.35H836l40.29.55a16.08,16.08,0,0,0,11.91-5,15.9,15.9,0,0,0,4.47-12A316.79,316.79,0,0,0,816.76,348.2,17.25,17.25,0,0,0,808.36,342.61Z" transform="translate(-173.27 -226.55)"/><path class="eb7d25e1-e149-4e2a-b8fd-393ea9fae641" d="M581.48,559.69a8.55,8.55,0,0,1-5.63-11.56,8.69,8.69,0,0,1,1.91-2.77l1.94-1.89L761.15,366.84l2.86,2.94a265.15,265.15,0,0,1,71.22,137.9l.06.31a269,269,0,0,1,4.28,46.48c0,1.61,0,3.22,0,4.83v.85l-1.44,3.25L583.6,560A8.88,8.88,0,0,1,581.48,559.69ZM761,378.47,583.49,551.24a.41.41,0,0,0-.1.14.44.44,0,0,0,.08.27.23.23,0,0,0,.24.12l2.69,0,245,3.3v-.59a260.78,260.78,0,0,0-4.2-45.34l-.06-.31A256.92,256.92,0,0,0,761,378.47Z" transform="translate(-173.27 -226.55)"/><path class="ab3f49ac-2299-49fe-97cf-8640facc0209" d="M682.68,538.88l20.46-.76c-.34-7-.69-14.08-1.09-22.26a2.86,2.86,0,0,1,4.61-2.41l8.51,6.59c10.38-6.29,12.49-19,4.52-29-13.83-17.41-44.12-15.56-55.58,3.41-4.54,7.51-2.15,18.08,5.8,25.59l13.41-9.54,2.55,1.51C684.87,520.49,683.86,529,682.68,538.88Z" transform="translate(-173.27 -226.55)"/><path class="b792a178-46dc-4d9b-8d27-173a95710a97" d="M678,543.16l3.1-26.07-11.6,8.24L667.09,523c-9.39-8.86-12.06-21.49-6.49-30.7,6-10,17.29-16.49,30-17.31s24.9,4.22,32.25,13.47c4.68,5.89,6.6,12.83,5.4,19.53a22.88,22.88,0,0,1-11,15.54L714.89,525l-8.61-6.67,1.17,23.72Zm5.07-37.56,7.15,4.24-2.93,24.76,11.51-.43L698,516.06a7,7,0,0,1,11.22-5.86l6.11,4.73a14.24,14.24,0,0,0,4.93-8.37c.78-4.35-.54-8.95-3.73-13-5.69-7.15-15.15-11-25.31-10.38s-18.88,5.64-23.55,13.36c-3.1,5.13-1.89,12.21,2.84,18Z" transform="translate(-173.27 -226.55)"/><path class="a3a7ca29-bbc9-41d1-9a72-0a7e90d3351d" d="M797.47,529.68a32.8,32.8,0,1,1,6.73-37.62A32.8,32.8,0,0,1,797.47,529.68Z" transform="translate(-173.27 -226.55)"/><path class="eb7d25e1-e149-4e2a-b8fd-393ea9fae641" d="M764.94,541.82a36.92,36.92,0,0,1-16.1-62.09,37,37,0,0,1,52.19.7,36.49,36.49,0,0,1,6.88,9.88,36.87,36.87,0,0,1-7.57,42.31h0a36.69,36.69,0,0,1-26.24,10.46A37.2,37.2,0,0,1,764.94,541.82Zm17.15-63.34a28.6,28.6,0,1,0,13.06,7.67A28.74,28.74,0,0,0,782.09,478.48Z" transform="translate(-173.27 -226.55)"/><path class="b493c6f2-8495-4515-8b08-4290c09eb1ad" d="M797.47,529.68a32.83,32.83,0,0,1-52.35-9.06c50.45,23.13,59.08-28.56,59.08-28.56A32.81,32.81,0,0,1,797.47,529.68Z" transform="translate(-173.27 -226.55)"/><path class="eb7d25e1-e149-4e2a-b8fd-393ea9fae641" d="M764.94,541.82a36.92,36.92,0,0,1-16.1-62.09,37,37,0,0,1,52.19.7,36.49,36.49,0,0,1,6.88,9.88,36.87,36.87,0,0,1-7.57,42.31h0a36.69,36.69,0,0,1-26.24,10.46A37.2,37.2,0,0,1,764.94,541.82Zm17.15-63.34a28.6,28.6,0,1,0,13.06,7.67A28.74,28.74,0,0,0,782.09,478.48Z" transform="translate(-173.27 -226.55)"/><path class="b0489e99-e106-4154-9eb8-6274ad1c8f95" d="M783.94,497.07c-1.65,1.61-.81,5.15,1.88,7.91s6.21,3.7,7.86,2.1.81-5.15-1.88-7.92S785.59,495.46,783.94,497.07Z" transform="translate(-173.27 -226.55)"/><path class="b0489e99-e106-4154-9eb8-6274ad1c8f95" d="M758.62,493.23a5.94,5.94,0,1,0,8.4.11A5.94,5.94,0,0,0,758.62,493.23Z" transform="translate(-173.27 -226.55)"/><path class="b0489e99-e106-4154-9eb8-6274ad1c8f95" d="M769.22,521.15c-2.35,2.29-2.6,5.84-.56,7.94s5.61,1.95,8-.34,2.6-5.85.56-7.94S771.57,518.86,769.22,521.15Z" transform="translate(-173.27 -226.55)"/><path class="a76dbccf-0be0-47e8-8883-72cee6d43780" d="M769.64,431.88s-10.24-18.32-20-15.79S741,415,735.11,424s-1.83,17.91,10.55,21.62S779,451.07,769.64,431.88Z" transform="translate(-173.27 -226.55)"/><path class="eb7d25e1-e149-4e2a-b8fd-393ea9fae641" d="M746.23,450c-.68-.18-1.27-.35-1.75-.5-7.74-2.32-13.13-6.7-15.19-12.33-1.79-4.87-.94-10.36,2.39-15.46,4.46-6.85,6-8.06,11.21-8.63a36.27,36.27,0,0,0,5.69-1c12.5-3.23,23.44,15.6,24.65,17.76l.11.21c3.59,7.39,3.67,13.2.21,17.27C767.33,454.66,752.72,451.79,746.23,450Zm6.52-29.91a4.15,4.15,0,0,0-2.12-.07,43.8,43.8,0,0,1-6.84,1.22c-1.35.15-1.64.2-1.8.33a29.52,29.52,0,0,0-3.44,4.62c-1.32,2-2.67,5.1-1.55,8.16s4.64,5.73,9.84,7.29c9.26,2.78,18.25,2.94,20.46.35,1.09-1.29.62-4.29-1.29-8.25C763,428.42,757.2,421.32,752.75,420.13Z" transform="translate(-173.27 -226.55)"/><path class="b0489e99-e106-4154-9eb8-6274ad1c8f95" d="M779.42,376h0a5.29,5.29,0,0,1,.52-7.46l.7-.6a5.28,5.28,0,0,1,7.46.52h0a5.3,5.3,0,0,1-.52,7.46l-.7.6A5.29,5.29,0,0,1,779.42,376Z" transform="translate(-173.27 -226.55)"/><path class="b0489e99-e106-4154-9eb8-6274ad1c8f95" d="M823.9,445.51c-9.79-27-22.69-44.59-28.56-51.76a5.27,5.27,0,0,1,.4-7.13l.68-.66a5.28,5.28,0,0,1,7.76.4c6.51,7.88,20.12,26.49,30.53,55.24a5.31,5.31,0,0,1-3.29,6.83l-.88.29A5.28,5.28,0,0,1,823.9,445.51Z" transform="translate(-173.27 -226.55)"/><path class="e8b90b83-2dc0-4260-9db7-2c23be26ed21" d="M785.5,773.46l-28.16-28.89-.14-.14-.18-.18L583.11,565.88a5.53,5.53,0,0,1,4-9.4l249.1,3.16,40.8.52A20.28,20.28,0,0,1,897,582a322.78,322.78,0,0,1-82,190.93A20.25,20.25,0,0,1,785.5,773.46Z" transform="translate(-173.27 -226.55)"/><path class="eb7d25e1-e149-4e2a-b8fd-393ea9fae641" d="M578.67,566.77a9.45,9.45,0,0,1-1-6.73,9.63,9.63,0,0,1,5.85-7,9.49,9.49,0,0,1,3.72-.68l249.09,3.15,40.81.53a24.38,24.38,0,0,1,24,26.28,327,327,0,0,1-83,193.34,24,24,0,0,1-17.55,8,24.51,24.51,0,0,1-18-7.37l-28.16-28.9-.13-.13-.14-.14-174-178.42A10.37,10.37,0,0,1,578.67,566.77Zm312.15,5.6a16.28,16.28,0,0,0-4.15-4.74,16,16,0,0,0-9.68-3.36l-40.8-.53-249.1-3.15a1.35,1.35,0,0,0-.55.09,1.48,1.48,0,0,0-.88,1.07,1.31,1.31,0,0,0,.39,1.26L760,741.38l.35.36,28.13,28.86a16.07,16.07,0,0,0,11.94,4.9A15.9,15.9,0,0,0,812,770.2a316.83,316.83,0,0,0,80.93-188.51A16,16,0,0,0,890.82,572.37Z" transform="translate(-173.27 -226.55)"/><path class="ef51d640-f705-4c82-a6e5-798ae2d5e7b2" d="M757,744.25h0L583.11,565.88,581.23,564a4.43,4.43,0,0,1,1.49-7.19,4.59,4.59,0,0,1,1.73-.31l2.69,0,249.1,3.16a261.17,261.17,0,0,1-46.31,145.63h0a264.63,264.63,0,0,1-29.52,35.61C759.28,742,758.16,743.14,757,744.25Z" transform="translate(-173.27 -226.55)"/><path class="eb7d25e1-e149-4e2a-b8fd-393ea9fae641" d="M577,565.11a8.46,8.46,0,0,1-1-6,8.55,8.55,0,0,1,5.14-6.2,8.67,8.67,0,0,1,3.3-.61l2.71,0,253.21,3.21,0,4.1a265.24,265.24,0,0,1-47,147.91l-.18.26a268.17,268.17,0,0,1-29.82,35.92q-1.68,1.71-3.42,3.4l-.6.59L756,749.06,578.29,566.82A8.82,8.82,0,0,1,577,565.11Zm255-1.42-247.66-3.14a.52.52,0,0,0-.17,0,.41.41,0,0,0-.14.25c0,.1,0,.15.09.25l1.88,1.93,171,175.41.42-.42a260.6,260.6,0,0,0,29.06-35l.18-.26A256.93,256.93,0,0,0,832.05,563.69Z" transform="translate(-173.27 -226.55)"/><path class="ed007fcd-7ab5-4f89-a27c-1d1dc205378b" d="M785.5,773.46l-28.16-28.89c3.24,3.09,30.83,27.67,58.51-2.39,81.95-89,61.19-182,61.19-182l12.14,4.22A20.19,20.19,0,0,1,897,582a322.78,322.78,0,0,1-82,190.93A20.25,20.25,0,0,1,785.5,773.46Z" transform="translate(-173.27 -226.55)"/><path class="ae4e7d4a-ac08-4f68-a6a5-be333cdc0ce2" d="M757.34,744.57l-.14-.14-.18-.18h0L583.11,565.88,581.23,564a4.43,4.43,0,0,1,1.49-7.19l1.73-.31s.19.14.54.43c4.58,3.57,36.87,28.85,64.88,52,3.88,3.21,9.08,7.18,15.18,11.67,5,3.64,10.49,7.62,16.44,11.8,11.59,8.18,24.65,17.15,37.6,25.91,6.16,4.17,12.29,8.29,18.22,12.27l5.3,3.53c9.74,6.5,18.78,12.49,26.29,17.44,12.71,8.38,21,13.8,21,13.8h0L760.4,740.89Z" transform="translate(-173.27 -226.55)"/><path class="eb7d25e1-e149-4e2a-b8fd-393ea9fae641" d="M578.67,566.77a9.45,9.45,0,0,1-1-6.73,9.63,9.63,0,0,1,5.85-7,9.49,9.49,0,0,1,3.72-.68l249.09,3.15,40.81.53c5.62.07,6.42.51,14.06,4.73,6.79,3.75,10.69,12.2,10,21.55a327,327,0,0,1-83,193.34,24,24,0,0,1-17.55,8,24.51,24.51,0,0,1-18-7.37l-28.16-28.9-.13-.13-.14-.14-174-178.42A10.37,10.37,0,0,1,578.67,566.77Zm312.26,5A10,10,0,0,0,887.2,568c-6.65-3.67-6.65-3.67-10.21-3.71l-40.8-.53-249.1-3.15a1.35,1.35,0,0,0-.55.09,1.48,1.48,0,0,0-.88,1.07,1.31,1.31,0,0,0,.39,1.26L760,741.38l.35.36,28.13,28.86a16.07,16.07,0,0,0,11.94,4.9A15.9,15.9,0,0,0,812,770.2a316.83,316.83,0,0,0,80.93-188.51A17.27,17.27,0,0,0,890.93,571.8Z" transform="translate(-173.27 -226.55)"/><path class="eb7d25e1-e149-4e2a-b8fd-393ea9fae641" d="M577,565.11a8.46,8.46,0,0,1-1-6,8.55,8.55,0,0,1,5.14-6.2,8.67,8.67,0,0,1,3.3-.61l2.71,0,253.21,3.21,0,4.1a265.24,265.24,0,0,1-47,147.91l-.18.26a268.17,268.17,0,0,1-29.82,35.92q-1.68,1.71-3.42,3.4l-.6.59L756,749.06,578.29,566.82A8.82,8.82,0,0,1,577,565.11Zm255-1.42-247.66-3.14a.52.52,0,0,0-.17,0,.41.41,0,0,0-.14.25c0,.1,0,.15.09.25l1.88,1.93,171,175.41.42-.42a260.6,260.6,0,0,0,29.06-35l.18-.26A256.93,256.93,0,0,0,832.05,563.69Z" transform="translate(-173.27 -226.55)"/><path class="ab3f49ac-2299-49fe-97cf-8640facc0209" d="M663.32,621.89l15,13.92,14.95-16.53a2.87,2.87,0,0,1,5,1.56c.5,3.93.93,7.27,1.37,10.68,11.78,2.88,22.24-4.6,23.68-17.34,2.52-22.09-20.23-42.18-41.73-36.86-8.53,2.11-14.3,11.28-14,22.21l16.23,2.73c.35,1.36.38,1.51.73,2.87Z" transform="translate(-173.27 -226.55)"/><path class="b792a178-46dc-4d9b-8d27-173a95710a97" d="M657,621.64l20.61-16.26-14-2.36-.1-3.37c-.39-12.9,6.64-23.73,17.09-26.31,11.37-2.81,23.89.55,33.5,9s14.64,20.58,13.3,32.33c-.85,7.47-4.39,13.73-10,17.63a22.83,22.83,0,0,1-18.76,3.22l-2.73-.67L694.52,624l-15.93,17.61Zm30.12-23,2.06,8.05-19.56,15.44,8.44,7.83,12.17-13.44a7,7,0,0,1,12.08,3.79l1,7.65a14.2,14.2,0,0,0,9.4-2.43c3.63-2.53,5.95-6.72,6.53-11.82,1-9.08-2.92-18.51-10.57-25.23s-17.35-9.35-26.11-7.18c-5.82,1.44-10,7.3-10.74,14.77Z" transform="translate(-173.27 -226.55)"/><path class="a3a7ca29-bbc9-41d1-9a72-0a7e90d3351d" d="M751,696.49a32.81,32.81,0,1,1,33.22-32.39,32.45,32.45,0,0,1-1.88,10.52A32.8,32.8,0,0,1,751,696.49Z" transform="translate(-173.27 -226.55)"/><path class="eb7d25e1-e149-4e2a-b8fd-393ea9fae641" d="M719.44,682.1A36.93,36.93,0,1,1,751,700.6h0a36.73,36.73,0,0,1-26-11.15A37.51,37.51,0,0,1,719.44,682.1Zm56.89-32.71a28.7,28.7,0,0,0-52,5,28.71,28.71,0,0,0,26.8,38,28.68,28.68,0,0,0,27.42-19.14,28.66,28.66,0,0,0-2.18-23.86Z" transform="translate(-173.27 -226.55)"/><path class="b493c6f2-8495-4515-8b08-4290c09eb1ad" d="M751,696.49a32.83,32.83,0,0,1-30.64-43.41c19.36,52,62,21.54,62,21.54A32.8,32.8,0,0,1,751,696.49Z" transform="translate(-173.27 -226.55)"/><path class="eb7d25e1-e149-4e2a-b8fd-393ea9fae641" d="M719.44,682.1A36.93,36.93,0,1,1,751,700.6h0a36.73,36.73,0,0,1-26-11.15A37.51,37.51,0,0,1,719.44,682.1Zm56.89-32.71a28.7,28.7,0,0,0-52,5,28.71,28.71,0,0,0,26.8,38,28.68,28.68,0,0,0,27.42-19.14,28.66,28.66,0,0,0-2.18-23.86Z" transform="translate(-173.27 -226.55)"/><path class="b0489e99-e106-4154-9eb8-6274ad1c8f95" d="M764.51,663.85c-2.3,0-4.21,3.08-4.26,6.93s1.78,7,4.08,7,4.22-3.08,4.26-6.93S766.81,663.88,764.51,663.85Z" transform="translate(-173.27 -226.55)"/><path class="b0489e99-e106-4154-9eb8-6274ad1c8f95" d="M749.31,643.24a5.94,5.94,0,1,0,5.86,6A5.94,5.94,0,0,0,749.31,643.24Z" transform="translate(-173.27 -226.55)"/><path class="b0489e99-e106-4154-9eb8-6274ad1c8f95" d="M737.08,670.49c-3.28,0-6,2.3-6,5.23s2.59,5.34,5.87,5.38,6-2.3,6-5.23S740.36,670.53,737.08,670.49Z" transform="translate(-173.27 -226.55)"/><path class="a76dbccf-0be0-47e8-8883-72cee6d43780" d="M800.46,607.62s5.69-20.21-3-25.34-5.35-6.86-15.83-4.64-14,11.38-7.82,22.75S793.51,627.8,800.46,607.62Z" transform="translate(-173.27 -226.55)"/><path class="eb7d25e1-e149-4e2a-b8fd-393ea9fae641" d="M771.05,603.93c-.35-.61-.65-1.15-.89-1.59-3.83-7.11-4.55-14-2-19.47,2.18-4.7,6.66-8,12.61-9.25,8-1.69,10-1.44,14,1.82a35.75,35.75,0,0,0,4.73,3.3c11.13,6.55,5.57,27.61,4.9,30l-.07.22c-2.68,7.78-6.73,11.94-12.05,12.37C782.73,622.1,774.41,609.75,771.05,603.93Zm25.75-16.57a4.15,4.15,0,0,0-1.45-1.54,44,44,0,0,1-5.71-4c-1.06-.85-1.29-1-1.5-1a28.91,28.91,0,0,0-5.69.84c-2.38.51-5.5,1.73-6.87,4.67s-.76,7.34,1.81,12.12c4.59,8.52,10.84,15,14.23,14.7,1.68-.14,3.47-2.59,4.92-6.75C798.18,600.46,799.1,591.35,796.8,587.36Z" transform="translate(-173.27 -226.55)"/><path class="b0489e99-e106-4154-9eb8-6274ad1c8f95" d="M846.86,575h0a5.29,5.29,0,0,1,5.64-4.91l.92.06a5.29,5.29,0,0,1,4.91,5.64h0a5.29,5.29,0,0,1-5.64,4.91l-.92-.06A5.3,5.3,0,0,1,846.86,575Z" transform="translate(-173.27 -226.55)"/><path class="b0489e99-e106-4154-9eb8-6274ad1c8f95" d="M829.21,655.6c12.13-26,15.46-47.58,16.37-56.81A5.28,5.28,0,0,1,850.9,594h1a5.28,5.28,0,0,1,5.2,5.77c-.95,10.18-4.48,33-17.42,60.66a5.3,5.3,0,0,1-7.15,2.51l-.84-.42A5.28,5.28,0,0,1,829.21,655.6Z" transform="translate(-173.27 -226.55)"/><path class="e8b90b83-2dc0-4260-9db7-2c23be26ed21" d="M580.19,252.22l-.87,40.34a1.33,1.33,0,0,0,0,.2V293l-5.44,249.07a5.51,5.51,0,0,0,9.35,4.11l180-172.27,29.48-28.22a20.29,20.29,0,0,0-.31-29.6,322.93,322.93,0,0,0-190.2-83.65A20.26,20.26,0,0,0,580.19,252.22Z" transform="translate(-173.27 -226.55)"/><path class="eb7d25e1-e149-4e2a-b8fd-393ea9fae641" d="M569.77,542l5.43-249.13v-.2a1.28,1.28,0,0,1,0-.19l.87-40.34a24.54,24.54,0,0,1,8.12-17.66,24,24,0,0,1,18.3-6.11,327,327,0,0,1,192.6,84.71,24.38,24.38,0,0,1,.38,35.6L766,376.89,586.07,549.15a9.6,9.6,0,0,1-12.22.93,9.43,9.43,0,0,1-3.84-5.63A10,10,0,0,1,569.77,542Zm219.8-222.86a316.77,316.77,0,0,0-187.78-82.59,15.86,15.86,0,0,0-12.1,4,16.08,16.08,0,0,0-5.39,11.73l-.87,40.29,0,.5L578,542.17a1.33,1.33,0,0,0,.58,1.18,1.48,1.48,0,0,0,1.37.18,1.43,1.43,0,0,0,.47-.3L760.34,371l29.48-28.22a16.16,16.16,0,0,0-.25-23.61Z" transform="translate(-173.27 -226.55)"/><path class="ef51d640-f705-4c82-a6e5-798ae2d5e7b2" d="M579.31,293h0l-5.43,249.06-.06,2.69a4.43,4.43,0,0,0,6,4.24,4.78,4.78,0,0,0,1.48-1l1.94-1.87,180-172.27A261.17,261.17,0,0,0,630,299.05h0a264,264,0,0,0-45.87-5.88C582.48,293.1,580.9,293.05,579.31,293Z" transform="translate(-173.27 -226.55)"/><path class="eb7d25e1-e149-4e2a-b8fd-393ea9fae641" d="M569.71,544.68l5.54-254.46,3.31-1.33.84,0q2.43.06,4.83.15a269.11,269.11,0,0,1,46.3,5.92l.31.06a265.24,265.24,0,0,1,135.31,76l2.84,3L586.06,549.16l-2,1.87a8.52,8.52,0,0,1-14.18-4.23A8.82,8.82,0,0,1,569.71,544.68Zm59.66-241.55-.3-.07a261.07,261.07,0,0,0-45.17-5.79l-.59,0L578,542.17l-.05,2.69a.23.23,0,0,0,.1.25.52.52,0,0,0,.28.08.53.53,0,0,0,.14-.1L757.36,373.82A257,257,0,0,0,629.37,303.13Z" transform="translate(-173.27 -226.55)"/><path class="ed007fcd-7ab5-4f89-a27c-1d1dc205378b" d="M580.19,252.22l-.87,40.34c.26-4.47,3.66-41.26,44.41-38.17,120.62,9.13,168.93,91.31,168.93,91.31l6-11.37a20.2,20.2,0,0,0-6.3-18.23,322.93,322.93,0,0,0-190.2-83.65A20.26,20.26,0,0,0,580.19,252.22Z" transform="translate(-173.27 -226.55)"/><path class="ae4e7d4a-ac08-4f68-a6a5-be333cdc0ce2" d="M579.32,292.56a1.33,1.33,0,0,0,0,.2V293h0l-5.43,249.06-.06,2.69a4.43,4.43,0,0,0,6,4.24l1.48-1s0-.24.1-.69c.91-5.74,7.27-46.25,12-82.26.65-5,1.74-11.44,3.14-18.89,1.13-6,2.47-12.73,4-19.84,2.89-13.89,6.32-29.36,9.81-44.61,1.66-7.24,3.33-14.44,5-21.39q.74-3.13,1.46-6.19c2.69-11.41,5.21-21.95,7.32-30.7,3.57-14.79,6-24.44,6-24.44h0l-45.87-5.88Z" transform="translate(-173.27 -226.55)"/><path class="eb7d25e1-e149-4e2a-b8fd-393ea9fae641" d="M569.77,542l5.43-249.13v-.2a1.28,1.28,0,0,1,0-.19l.87-40.34a24.54,24.54,0,0,1,8.12-17.66,24,24,0,0,1,18.3-6.11,327,327,0,0,1,192.6,84.71c6.92,6.33,9.84,15.17,7.44,22.54-2.71,8.3-3,9.17-7.06,13.06L766,376.89,586.07,549.15a9.6,9.6,0,0,1-12.22.93,9.43,9.43,0,0,1-3.84-5.63A10,10,0,0,1,569.77,542Zm219.8-222.86a316.77,316.77,0,0,0-187.78-82.59,15.86,15.86,0,0,0-12.1,4,16.08,16.08,0,0,0-5.39,11.73l-.87,40.29,0,.5L578,542.17a1.33,1.33,0,0,0,.58,1.18,1.48,1.48,0,0,0,1.37.18,1.43,1.43,0,0,0,.47-.3L760.34,371l29.48-28.22c2.57-2.46,2.57-2.46,4.92-9.68a9.83,9.83,0,0,0,.12-5.34A17.22,17.22,0,0,0,789.57,319.13Z" transform="translate(-173.27 -226.55)"/><path class="eb7d25e1-e149-4e2a-b8fd-393ea9fae641" d="M569.71,544.68l5.54-254.46,3.31-1.33.84,0q2.43.06,4.83.15a269.11,269.11,0,0,1,46.3,5.92l.31.06a265.24,265.24,0,0,1,135.31,76l2.84,3L586.06,549.16l-2,1.87a8.52,8.52,0,0,1-14.18-4.23A8.82,8.82,0,0,1,569.71,544.68Zm59.66-241.55-.3-.07a261.07,261.07,0,0,0-45.17-5.79l-.59,0L578,542.17l-.05,2.69a.23.23,0,0,0,.1.25.52.52,0,0,0,.28.08.53.53,0,0,0,.14-.1L757.36,373.82A257,257,0,0,0,629.37,303.13Z" transform="translate(-173.27 -226.55)"/><path class="ab3f49ac-2299-49fe-97cf-8640facc0209" d="M594.29,446.4c.6-8.36,1-14.1,1.48-20.42l22.2,1.88a2.87,2.87,0,0,0,2.57-4.53l-6.28-8.74c6.65-10.14,19.39-11.81,29.14-3.49,16.91,14.44,14,44.64-5.36,55.43-7.67,4.27-18.15,1.51-25.37-6.7l10-13.06-1.42-2.61Z" transform="translate(-173.27 -226.55)"/><path class="b792a178-46dc-4d9b-8d27-173a95710a97" d="M592,421.54l23.67,2-6.36-8.84,1.55-2.36a22.81,22.81,0,0,1,15.91-10.43c6.74-1,13.61,1.19,19.33,6.07,9,7.68,13.6,19.91,12.32,32.71s-8.13,23.72-18.36,29.43c-9.4,5.23-21.92,2.12-30.45-7.58L607.36,460,616,448.72l-26.16,2.17Zm26.14,37.93c5.66,4.93,12.69,6.39,17.93,3.47,7.88-4.39,13.18-13,14.18-23.06s-2.54-19.72-9.48-25.65c-3.9-3.33-8.46-4.82-12.84-4.2a14.29,14.29,0,0,0-8.53,4.64l4.5,6.27a7,7,0,0,1-6.24,11l-18.07-1.53-.83,11.49,24.84-2.06,4,7.29Z" transform="translate(-173.27 -226.55)"/><path class="a3a7ca29-bbc9-41d1-9a72-0a7e90d3351d" d="M607.52,332a32.8,32.8,0,1,0,37.84-5.4A32.8,32.8,0,0,0,607.52,332Z" transform="translate(-173.27 -226.55)"/><path class="eb7d25e1-e149-4e2a-b8fd-393ea9fae641" d="M593.3,354.91A36.73,36.73,0,0,1,604.68,329h0a37,37,0,1,1-11.38,25.87Zm57.64-19.05a28.7,28.7,0,1,0-41.47,39.69,29,29,0,0,0,7.2,5.48,28.71,28.71,0,0,0,34.27-45.17Z" transform="translate(-173.27 -226.55)"/><path class="b493c6f2-8495-4515-8b08-4290c09eb1ad" d="M607.52,332a32.84,32.84,0,0,0,7.22,52.64c-21.34-51.24,30.62-58,30.62-58A32.82,32.82,0,0,0,607.52,332Z" transform="translate(-173.27 -226.55)"/><path class="eb7d25e1-e149-4e2a-b8fd-393ea9fae641" d="M593.3,354.91A36.73,36.73,0,0,1,604.68,329h0a37,37,0,1,1-11.38,25.87Zm57.64-19.05a28.7,28.7,0,1,0-41.47,39.69,29,29,0,0,0,7.2,5.48,28.71,28.71,0,0,0,34.27-45.17Z" transform="translate(-173.27 -226.55)"/><path class="b0489e99-e106-4154-9eb8-6274ad1c8f95" d="M639.64,346.68c-1.67,1.59-5.18.63-7.85-2.16s-3.48-6.33-1.81-7.93,5.18-.63,7.84,2.16S641.3,345.08,639.64,346.68Z" transform="translate(-173.27 -226.55)"/><path class="b0489e99-e106-4154-9eb8-6274ad1c8f95" d="M642.58,372.12a5.94,5.94,0,1,1,.19-8.4A5.93,5.93,0,0,1,642.58,372.12Z" transform="translate(-173.27 -226.55)"/><path class="b0489e99-e106-4154-9eb8-6274ad1c8f95" d="M615.05,360.55c-2.37,2.26-5.93,2.39-8,.27s-1.74-5.67.63-7.94,5.93-2.39,8-.28S617.42,358.28,615.05,360.55Z" transform="translate(-173.27 -226.55)"/><path class="a76dbccf-0be0-47e8-8883-72cee6d43780" d="M704.29,363.27s17.94,10.88,15.07,20.58.77,8.67-8.41,14.2-18,1.2-21.24-11.3S685.43,353.25,704.29,363.27Z" transform="translate(-173.27 -226.55)"/><path class="eb7d25e1-e149-4e2a-b8fd-393ea9fae641" d="M689,358.82c4.19-3.31,10-3,17.25.82l.2.12C708.53,361,727,372.64,723.3,385a35.61,35.61,0,0,0-1.22,5.64c-.75,5.16-2,6.69-9,10.91-5.21,3.14-10.73,3.79-15.54,1.84-5.55-2.26-9.74-7.8-11.79-15.62-.13-.48-.28-1.08-.43-1.77C683.79,379.48,681.44,364.77,689,358.82Zm13.29,8c-3.89-2.05-6.87-2.62-8.19-1.58-2.67,2.11-2.83,11.1-.38,20.46,1.38,5.25,3.85,8.83,7,10.09s6.12,0,8.2-1.26a28.67,28.67,0,0,0,4.74-3.28c.13-.15.19-.44.39-1.78a44.76,44.76,0,0,1,1.46-6.8,4,4,0,0,0,0-2.11C714.39,376.08,707.51,370.06,702.25,366.83Z" transform="translate(-173.27 -226.55)"/><path class="b0489e99-e106-4154-9eb8-6274ad1c8f95" d="M760.48,355.47h0a5.29,5.29,0,0,0,7.47-.26l.63-.68a5.27,5.27,0,0,0-.26-7.47h0a5.28,5.28,0,0,0-7.47.26l-.63.67A5.3,5.3,0,0,0,760.48,355.47Z" transform="translate(-173.27 -226.55)"/><path class="b0489e99-e106-4154-9eb8-6274ad1c8f95" d="M692.57,308.56c26.61,10.74,43.77,24.25,50.73,30.37a5.25,5.25,0,0,0,7.13-.15l.69-.66a5.27,5.27,0,0,0-.13-7.76c-7.65-6.79-25.77-21-54.13-32.47a5.3,5.3,0,0,0-6.94,3.06l-.32.87A5.27,5.27,0,0,0,692.57,308.56Z" transform="translate(-173.27 -226.55)"/><path class="e8b90b83-2dc0-4260-9db7-2c23be26ed21" d="M363.47,335.38l27.88,29.16.14.14.17.19L563.8,545a5.53,5.53,0,0,0,9.05-1.56,5.33,5.33,0,0,0,.47-2.14l5.63-249,.92-40.8a20.3,20.3,0,0,0-21.14-20.73A322.88,322.88,0,0,0,365,305.87,20.26,20.26,0,0,0,363.47,335.38Z" transform="translate(-173.27 -226.55)"/><path class="eb7d25e1-e149-4e2a-b8fd-393ea9fae641" d="M560.83,547.8,388.65,367.66l-.14-.15-.12-.13L360.5,338.22A24.51,24.51,0,0,1,353.77,320a24,24,0,0,1,8.63-17.25,327,327,0,0,1,196.15-76.15A24.4,24.4,0,0,1,584,251.5l-.92,40.8-5.62,249.05a9.73,9.73,0,0,1-.81,3.69,9.63,9.63,0,0,1-7.18,5.6,9.38,9.38,0,0,1-6.69-1.28A9.8,9.8,0,0,1,560.83,547.8Zm-1.92-313A316.91,316.91,0,0,0,367.67,309,15.89,15.89,0,0,0,362,320.43a16.06,16.06,0,0,0,4.48,12.11l27.84,29.13.35.37L566.77,542.13a1.34,1.34,0,0,0,1.24.43,1.5,1.5,0,0,0,1.1-.84,1.35,1.35,0,0,0,.11-.55l5.63-249.06.91-40.79a16,16,0,0,0-3-9.8,16.14,16.14,0,0,0-13.83-6.74Z" transform="translate(-173.27 -226.55)"/><path class="ef51d640-f705-4c82-a6e5-798ae2d5e7b2" d="M391.66,364.87h0L563.8,545l1.85,1.94a4.43,4.43,0,0,0,7.24-1.22,4.76,4.76,0,0,0,.38-1.72l.05-2.7,5.63-249a261.15,261.15,0,0,0-147.17,41.14l0,0a263.54,263.54,0,0,0-36.62,28.25Q393.39,363.23,391.66,364.87Z" transform="translate(-173.27 -226.55)"/><path class="eb7d25e1-e149-4e2a-b8fd-393ea9fae641" d="M562.69,549.74l-175.87-184,1.4-3.28.61-.58c1.17-1.11,2.35-2.21,3.52-3.3a269.44,269.44,0,0,1,36.95-28.53l.27-.17A265.23,265.23,0,0,1,579,288.1l4.11.1-5.72,253.15-.06,2.72a8.69,8.69,0,0,1-.73,3.28,8.54,8.54,0,0,1-12.3,3.74A8.41,8.41,0,0,1,562.69,549.74ZM434.24,336.65l-.26.17a260.7,260.7,0,0,0-36.06,27.82l-.43.4L566.76,542.12l1.87,2c.09.1.14.12.25.1a.44.44,0,0,0,.25-.13.52.52,0,0,0,0-.17l5.59-247.62A257,257,0,0,0,434.24,336.65Z" transform="translate(-173.27 -226.55)"/><path class="ed007fcd-7ab5-4f89-a27c-1d1dc205378b" d="M363.47,335.38l27.88,29.16c-3-3.35-26.56-31.78,4.45-58.39,91.81-78.76,184.07-54.74,184.07-54.74l-3.8-12.28a20.23,20.23,0,0,0-17.34-8.45A322.88,322.88,0,0,0,365,305.87,20.26,20.26,0,0,0,363.47,335.38Z" transform="translate(-173.27 -226.55)"/><path class="ae4e7d4a-ac08-4f68-a6a5-be333cdc0ce2" d="M391.35,364.54l.14.14.17.19h0L563.8,545l1.85,1.94a4.43,4.43,0,0,0,7.24-1.22l.38-1.72-.42-.56c-3.41-4.71-27.53-37.87-49.65-66.67-3.07-4-6.85-9.32-11.13-15.58-3.46-5.08-7.24-10.76-11.21-16.85-7.77-11.87-16.27-25.24-24.57-38.49-4-6.3-7.85-12.58-11.62-18.64q-1.69-2.73-3.34-5.42c-6.15-10-11.82-19.21-16.5-26.89-7.93-13-13.05-21.51-13.05-21.51l0,0-36.62,28.25Z" transform="translate(-173.27 -226.55)"/><path class="eb7d25e1-e149-4e2a-b8fd-393ea9fae641" d="M560.83,547.8,388.65,367.66l-.14-.15-.12-.13L360.5,338.22A24.51,24.51,0,0,1,353.77,320a24,24,0,0,1,8.63-17.25,327,327,0,0,1,196.15-76.15c9.36-.41,17.68,3.79,21.18,10.7,4,7.79,4.37,8.6,4.24,14.22l-.92,40.8-5.62,249.05a9.73,9.73,0,0,1-.81,3.69,9.63,9.63,0,0,1-7.18,5.6,9.38,9.38,0,0,1-6.69-1.28A9.8,9.8,0,0,1,560.83,547.8Zm-1.92-313A316.91,316.91,0,0,0,367.67,309,15.89,15.89,0,0,0,362,320.43a16.06,16.06,0,0,0,4.48,12.11l27.84,29.13.35.37L566.77,542.13a1.34,1.34,0,0,0,1.24.43,1.5,1.5,0,0,0,1.1-.84,1.35,1.35,0,0,0,.11-.55l5.63-249.06.91-40.79c.08-3.56.08-3.56-3.35-10.33a10,10,0,0,0-3.69-3.86A17.28,17.28,0,0,0,558.91,234.78Z" transform="translate(-173.27 -226.55)"/><path class="eb7d25e1-e149-4e2a-b8fd-393ea9fae641" d="M562.69,549.74l-175.87-184,1.4-3.28.61-.58c1.17-1.11,2.35-2.21,3.52-3.3a269.44,269.44,0,0,1,36.95-28.53l.27-.17A265.23,265.23,0,0,1,579,288.1l4.11.1-5.72,253.15-.06,2.72a8.69,8.69,0,0,1-.73,3.28,8.54,8.54,0,0,1-12.3,3.74A8.41,8.41,0,0,1,562.69,549.74ZM434.24,336.65l-.26.17a260.7,260.7,0,0,0-36.06,27.82l-.43.4L566.76,542.12l1.87,2c.09.1.14.12.25.1a.44.44,0,0,0,.25-.13.52.52,0,0,0,0-.17l5.59-247.62A257,257,0,0,0,434.24,336.65Z" transform="translate(-173.27 -226.55)"/><path class="ab3f49ac-2299-49fe-97cf-8640facc0209" d="M510.64,462.83l-13.38-15.5,17-14.35a2.87,2.87,0,0,0-1.39-5l-10.62-1.75c-2.46-11.88,5.38-22.06,18.16-23.06,22.17-1.73,41.44,21.71,35.36,43-2.4,8.44-11.77,13.9-22.68,13.19Q532.06,451.22,531,443l-2.85-.83Z" transform="translate(-173.27 -226.55)"/><path class="b792a178-46dc-4d9b-8d27-173a95710a97" d="M491.44,446.87l18.16-15.3-10.74-1.76-.58-2.76a22.85,22.85,0,0,1,3.89-18.64c4.09-5.44,10.47-8.77,18-9.35,11.79-.92,23.69,4.48,31.83,14.44s11,22.53,7.8,33.79c-2.95,10.35-14,17-26.9,16.15l-3.36-.22-1.86-14.1-17,20Zm45.3,8.38c7.49-.51,13.49-4.45,15.14-10.21,2.47-8.68.13-18.53-6.26-26.35s-15.73-12.16-24.84-11.45c-5.12.4-9.39,2.57-12,6.1a14.23,14.23,0,0,0-2.75,9.31l7.61,1.26A7,7,0,0,1,517,436.12L503.09,447.8l7.53,8.72,16.12-19,8,2.35Z" transform="translate(-173.27 -226.55)"/><path class="a3a7ca29-bbc9-41d1-9a72-0a7e90d3351d" d="M439.18,372.53a32.81,32.81,0,1,0,33.54-32,32.26,32.26,0,0,0-10.58,1.5A32.82,32.82,0,0,0,439.18,372.53Z" transform="translate(-173.27 -226.55)"/><path class="eb7d25e1-e149-4e2a-b8fd-393ea9fae641" d="M445.3,398.78a36.61,36.61,0,0,1-10.22-26.34h0a36.86,36.86,0,0,1,25.82-34.37,36.47,36.47,0,0,1,11.91-1.7,36.95,36.95,0,1,1-27.51,62.41Zm27.33-54.2a28.33,28.33,0,0,0-9.26,1.32,28.62,28.62,0,1,0,9.26-1.32Z" transform="translate(-173.27 -226.55)"/><path class="b493c6f2-8495-4515-8b08-4290c09eb1ad" d="M439.18,372.53a32.83,32.83,0,0,0,42.3,32.15c-51.3-21.18-19.34-62.7-19.34-62.7A32.82,32.82,0,0,0,439.18,372.53Z" transform="translate(-173.27 -226.55)"/><path class="eb7d25e1-e149-4e2a-b8fd-393ea9fae641" d="M445.3,398.78a36.61,36.61,0,0,1-10.22-26.34h0a36.86,36.86,0,0,1,25.82-34.37,36.47,36.47,0,0,1,11.91-1.7,36.95,36.95,0,1,1-27.51,62.41Zm27.33-54.2a28.33,28.33,0,0,0-9.26,1.32,28.62,28.62,0,1,0,9.26-1.32Z" transform="translate(-173.27 -226.55)"/><path class="b0489e99-e106-4154-9eb8-6274ad1c8f95" d="M472.27,360.22c0,2.31-3.22,4.1-7.07,4s-6.94-2-6.89-4.33,3.22-4.11,7.08-4S472.32,357.92,472.27,360.22Z" transform="translate(-173.27 -226.55)"/><path class="b0489e99-e106-4154-9eb8-6274ad1c8f95" d="M492.34,376.14a5.94,5.94,0,1,1-5.81-6.07A6,6,0,0,1,492.34,376.14Z" transform="translate(-173.27 -226.55)"/><path class="b0489e99-e106-4154-9eb8-6274ad1c8f95" d="M464.68,387.4c-.08,3.28-2.51,5.89-5.44,5.82s-5.25-2.78-5.17-6.06,2.51-5.88,5.44-5.82S464.75,384.12,464.68,387.4Z" transform="translate(-173.27 -226.55)"/><path class="a76dbccf-0be0-47e8-8883-72cee6d43780" d="M529.74,326.28s20.39-5,25.21,3.91,6.68,5.59,4.09,16-11.87,13.54-23,7S509.32,332.51,529.74,326.28Z" transform="translate(-173.27 -226.55)"/><path class="eb7d25e1-e149-4e2a-b8fd-393ea9fae641" d="M515.76,334c.62-5.3,4.92-9.21,12.78-11.61l.23-.06c2.4-.59,23.64-5.4,29.79,5.95a37.1,37.1,0,0,0,3.13,4.85c3.12,4.18,3.3,6.16,1.33,14.09-1.47,5.9-4.91,10.26-9.69,12.28-5.53,2.32-12.41,1.36-19.38-2.72-.43-.26-1-.57-1.56-.95C526.69,352.23,514.64,343.49,515.76,334Zm15.06-3.72c-4.2,1.3-6.71,3-6.91,4.67-.4,3.38,5.84,9.86,14.19,14.74,4.68,2.75,9,3.54,12,2.24s4.33-4.34,4.91-6.7a29.87,29.87,0,0,0,1.05-5.66c0-.2-.18-.45-1-1.54a43.93,43.93,0,0,1-3.77-5.84,4.11,4.11,0,0,0-1.49-1.5C546,328.2,536.82,328.81,530.82,330.24Z" transform="translate(-173.27 -226.55)"/><path class="b0489e99-e106-4154-9eb8-6274ad1c8f95" d="M564,281.05h0a5.28,5.28,0,0,0,5.1-5.46l0-.92a5.29,5.29,0,0,0-5.46-5.11h0A5.3,5.3,0,0,0,558.5,275l0,.92A5.29,5.29,0,0,0,564,281.05Z" transform="translate(-173.27 -226.55)"/><path class="b0489e99-e106-4154-9eb8-6274ad1c8f95" d="M482.8,295.85c26.42-11.21,48.1-13.77,57.35-14.35a5.29,5.29,0,0,0,5-5.15l0-1a5.29,5.29,0,0,0-5.58-5.41c-10.21.6-33.1,3.32-61.24,15.28a5.3,5.3,0,0,0-2.76,7.06l.39.84A5.28,5.28,0,0,0,482.8,295.85Z" transform="translate(-173.27 -226.55)"/><path class="e8b90b83-2dc0-4260-9db7-2c23be26ed21" d="M567.48,855.46l1-40.34c0-.07,0-.14,0-.19v-.26l6.07-249a5.54,5.54,0,0,0-7.5-5.31,5.6,5.6,0,0,0-1.85,1.17L384.81,733.29l-29.55,28.15a20.28,20.28,0,0,0,.24,29.6,322.91,322.91,0,0,0,190,84.14A20.25,20.25,0,0,0,567.48,855.46Z" transform="translate(-173.27 -226.55)"/><path class="eb7d25e1-e149-4e2a-b8fd-393ea9fae641" d="M578.65,565.72l-6.07,249.11V815a1.21,1.21,0,0,1,0,.18l-1,40.34a24.53,24.53,0,0,1-8.17,17.64,24,24,0,0,1-18.31,6.06,327,327,0,0,1-192.39-85.2,24.39,24.39,0,0,1-.29-35.6L382,730.32l180.38-171.8a9.6,9.6,0,0,1,12.23-.9,9.38,9.38,0,0,1,3.82,5.64A10,10,0,0,1,578.65,565.72ZM358.28,788a316.87,316.87,0,0,0,187.57,83.07,15.9,15.9,0,0,0,12.11-4,16.08,16.08,0,0,0,5.42-11.71l1-40.29v-.5l6.07-249.05a1.32,1.32,0,0,0-.57-1.19,1.47,1.47,0,0,0-1.37-.18,1.3,1.3,0,0,0-.46.3L387.64,736.26l-29.55,28.15a15.94,15.94,0,0,0-4.8,9.05,16.45,16.45,0,0,0,.18,6.3A16.08,16.08,0,0,0,358.28,788Z" transform="translate(-173.27 -226.55)"/><path class="ef51d640-f705-4c82-a6e5-798ae2d5e7b2" d="M568.48,814.67h0l6.06-249,.06-2.69a4.43,4.43,0,0,0-6-4.26,4.89,4.89,0,0,0-1.48,1l-1.95,1.86L384.81,733.29a261.26,261.26,0,0,0,133,75.21h0a264.23,264.23,0,0,0,45.87,6C565.3,814.57,566.88,814.63,568.48,814.67Z" transform="translate(-173.27 -226.55)"/><path class="eb7d25e1-e149-4e2a-b8fd-393ea9fae641" d="M578.72,563l-6.2,254.44-3.31,1.32-.84,0c-1.62,0-3.22-.1-4.83-.16a269,269,0,0,1-46.28-6l-.32-.06a265.37,265.37,0,0,1-135.11-76.39l-2.83-3L562.37,558.51l2-1.87a8.45,8.45,0,0,1,10.81-.76,8.46,8.46,0,0,1,3.36,5A8.9,8.9,0,0,1,578.72,563Zm-60.28,241.4.3.06a260.91,260.91,0,0,0,45.15,5.91l.59,0,6-244.91.07-2.69c0-.14,0-.19-.11-.25a.37.37,0,0,0-.27-.08.34.34,0,0,0-.14.09L390.63,733.41A257,257,0,0,0,518.44,804.43Z" transform="translate(-173.27 -226.55)"/><path class="ed007fcd-7ab5-4f89-a27c-1d1dc205378b" d="M567.48,855.46l1-40.34c-.27,4.47-3.76,41.25-44.5,38.06-120.6-9.44-168.7-91.74-168.7-91.74l-6,11.35A20.22,20.22,0,0,0,355.5,791a322.91,322.91,0,0,0,190,84.14A20.25,20.25,0,0,0,567.48,855.46Z" transform="translate(-173.27 -226.55)"/><path class="ae4e7d4a-ac08-4f68-a6a5-be333cdc0ce2" d="M568.46,815.12c0-.07,0-.14,0-.19v-.26h0l6.06-249,.06-2.69a4.43,4.43,0,0,0-6-4.26l-1.48,1s0,.24-.1.69c-.93,5.74-7.39,46.23-12.18,82.23-.66,5-1.77,11.43-3.18,18.88-1.16,6-2.51,12.72-4,19.83-2.93,13.88-6.41,29.34-9.93,44.58-1.68,7.24-3.36,14.43-5,21.38l-1.48,6.19c-2.72,11.4-5.27,21.94-7.4,30.67-3.61,14.79-6,24.43-6,24.43h0l45.87,6Z" transform="translate(-173.27 -226.55)"/><path class="eb7d25e1-e149-4e2a-b8fd-393ea9fae641" d="M578.65,565.72l-6.07,249.11V815a1.21,1.21,0,0,1,0,.18l-1,40.34a24.53,24.53,0,0,1-8.17,17.64,24,24,0,0,1-18.31,6.06,327,327,0,0,1-192.39-85.2c-6.9-6.34-9.8-15.2-7.38-22.56,2.73-8.3,3-9.16,7.09-13L382,730.32l180.38-171.8a9.6,9.6,0,0,1,12.23-.9,9.38,9.38,0,0,1,3.82,5.64A10,10,0,0,1,578.65,565.72ZM358.28,788a316.87,316.87,0,0,0,187.57,83.07,15.9,15.9,0,0,0,12.11-4,16.08,16.08,0,0,0,5.42-11.71l1-40.29v-.5l6.07-249.05a1.32,1.32,0,0,0-.57-1.19,1.47,1.47,0,0,0-1.37-.18,1.3,1.3,0,0,0-.46.3L387.64,736.26l-29.55,28.15c-2.58,2.45-2.58,2.45-4.95,9.66a9.92,9.92,0,0,0-.13,5.34A17.27,17.27,0,0,0,358.28,788Z" transform="translate(-173.27 -226.55)"/><path class="eb7d25e1-e149-4e2a-b8fd-393ea9fae641" d="M578.72,563l-6.2,254.44-3.31,1.32-.84,0c-1.62,0-3.22-.1-4.83-.16a269,269,0,0,1-46.28-6l-.32-.06a265.37,265.37,0,0,1-135.11-76.39l-2.83-3L562.37,558.51l2-1.87a8.45,8.45,0,0,1,10.81-.76,8.46,8.46,0,0,1,3.36,5A8.9,8.9,0,0,1,578.72,563Zm-60.28,241.4.3.06a260.91,260.91,0,0,0,45.15,5.91l.59,0,6-244.91.07-2.69c0-.14,0-.19-.11-.25a.37.37,0,0,0-.27-.08.34.34,0,0,0-.14.09L390.63,733.41A257,257,0,0,0,518.44,804.43Z" transform="translate(-173.27 -226.55)"/><path class="ab3f49ac-2299-49fe-97cf-8640facc0209" d="M553.89,661.24c-.63,8.36-1.06,14.1-1.54,20.42l-22.2-1.94a2.87,2.87,0,0,0-2.58,4.52l6.26,8.76c-6.67,10.13-19.42,11.76-29.15,3.41-16.87-14.48-13.87-44.67,5.51-55.41,7.68-4.25,18.15-1.46,25.35,6.77l-10,13c.68,1.23.75,1.37,1.42,2.6Z" transform="translate(-173.27 -226.55)"/><path class="b792a178-46dc-4d9b-8d27-173a95710a97" d="M556.14,686.11,532.48,684l6.33,8.86-1.55,2.36a22.84,22.84,0,0,1-15.94,10.4c-6.75.94-13.6-1.23-19.31-6.13-9-7.7-13.55-19.94-12.24-32.74s8.19-23.7,18.43-29.38c9.42-5.21,21.93-2.07,30.43,7.65l2.22,2.54-8.68,11.27,26.17-2.1Zm-26-38c-5.65-4.94-12.68-6.42-17.92-3.52-7.9,4.38-13.22,13-14.25,23s2.49,19.73,9.43,25.68c3.89,3.34,8.44,4.84,12.82,4.23a14.23,14.23,0,0,0,8.54-4.62l-4.49-6.28a7,7,0,0,1,6.28-11l18.06,1.58.86-11.49-24.84,2-4-7.3Z" transform="translate(-173.27 -226.55)"/><path class="a3a7ca29-bbc9-41d1-9a72-0a7e90d3351d" d="M540.36,775.6a32.82,32.82,0,1,0-37.85,5.3A32.8,32.8,0,0,0,540.36,775.6Z" transform="translate(-173.27 -226.55)"/><path class="eb7d25e1-e149-4e2a-b8fd-393ea9fae641" d="M554.64,752.74a36.67,36.67,0,0,1-11.45,25.83h0a36.87,36.87,0,0,1-42.57,6A36.37,36.37,0,0,1,491,777.3a36.93,36.93,0,1,1,63.63-24.56ZM497,771.64a28.7,28.7,0,0,0,49.48-19.1A28.69,28.69,0,1,0,497,771.64Z" transform="translate(-173.27 -226.55)"/><path class="b493c6f2-8495-4515-8b08-4290c09eb1ad" d="M540.36,775.6a32.85,32.85,0,0,0-7.08-52.66c21.21,51.3-30.77,58-30.77,58A32.8,32.8,0,0,0,540.36,775.6Z" transform="translate(-173.27 -226.55)"/><path class="eb7d25e1-e149-4e2a-b8fd-393ea9fae641" d="M554.64,752.74a36.67,36.67,0,0,1-11.45,25.83h0a36.87,36.87,0,0,1-42.57,6A36.37,36.37,0,0,1,491,777.3a36.93,36.93,0,1,1,63.63-24.56ZM497,771.64a28.7,28.7,0,0,0,49.48-19.1A28.69,28.69,0,1,0,497,771.64Z" transform="translate(-173.27 -226.55)"/><path class="b0489e99-e106-4154-9eb8-6274ad1c8f95" d="M508.28,760.85c1.67-1.59,5.18-.62,7.84,2.18s3.46,6.34,1.79,7.93-5.17.62-7.83-2.18S506.61,762.44,508.28,760.85Z" transform="translate(-173.27 -226.55)"/><path class="b0489e99-e106-4154-9eb8-6274ad1c8f95" d="M505.4,735.4a5.94,5.94,0,1,1-.21,8.4A5.95,5.95,0,0,1,505.4,735.4Z" transform="translate(-173.27 -226.55)"/><path class="b0489e99-e106-4154-9eb8-6274ad1c8f95" d="M532.9,747.05c2.38-2.27,5.94-2.38,8-.26s1.73,5.68-.64,7.94-5.94,2.38-8,.25S530.52,749.31,532.9,747.05Z" transform="translate(-173.27 -226.55)"/><path class="a76dbccf-0be0-47e8-8883-72cee6d43780" d="M443.68,744.1s-17.92-10.93-15-20.62-.75-8.68,8.45-14.19,18-1.15,21.21,11.36S462.5,754.16,443.68,744.1Z" transform="translate(-173.27 -226.55)"/><path class="eb7d25e1-e149-4e2a-b8fd-393ea9fae641" d="M459,748.59c-4.2,3.3-10,3-17.25-.87l-.2-.12c-2.11-1.28-20.52-12.93-16.82-25.3a37.35,37.35,0,0,0,1.23-5.64c.76-5.16,2-6.69,9-10.89,5.22-3.12,10.74-3.76,15.54-1.8,5.55,2.27,9.72,7.83,11.75,15.65.13.48.28,1.08.43,1.77C464.21,727.94,466.53,742.65,459,748.59Zm-13.27-8.06c3.88,2.06,6.86,2.65,8.19,1.61,2.67-2.11,2.86-11.1.43-20.46-1.37-5.25-3.82-8.84-6.92-10.11s-6.13,0-8.21,1.25a28.56,28.56,0,0,0-4.75,3.26c-.13.15-.19.44-.39,1.78a44.12,44.12,0,0,1-1.48,6.79,4.1,4.1,0,0,0,0,2.12C433.6,731.26,440.47,737.3,445.72,740.53Z" transform="translate(-173.27 -226.55)"/><path class="b0489e99-e106-4154-9eb8-6274ad1c8f95" d="M387.46,751.75h0A5.29,5.29,0,0,0,380,752l-.63.68a5.28,5.28,0,0,0,.24,7.47h0a5.28,5.28,0,0,0,7.47-.24l.63-.67A5.29,5.29,0,0,0,387.46,751.75Z" transform="translate(-173.27 -226.55)"/><path class="b0489e99-e106-4154-9eb8-6274ad1c8f95" d="M455.25,798.83c-26.58-10.8-43.7-24.35-50.65-30.5a5.26,5.26,0,0,0-7.13.13l-.69.66a5.28,5.28,0,0,0,.11,7.77c7.63,6.81,25.71,21.1,54.05,32.6a5.3,5.3,0,0,0,6.94-3l.33-.87A5.29,5.29,0,0,0,455.25,798.83Z" transform="translate(-173.27 -226.55)"/><path class="e8b90b83-2dc0-4260-9db7-2c23be26ed21" d="M784.42,772.85l-27.81-29.23-.13-.14-.18-.19L584.63,562.76a5.53,5.53,0,0,0-9.54,3.67l-6.26,249.05-1,40.79a20.28,20.28,0,0,0,21.08,20.78,322.87,322.87,0,0,0,193.89-74.69A20.26,20.26,0,0,0,784.42,772.85Z" transform="translate(-173.27 -226.55)"/><path class="eb7d25e1-e149-4e2a-b8fd-393ea9fae641" d="M587.6,559.93,759.32,740.51l.14.15a.77.77,0,0,1,.12.13L787.4,770a24.53,24.53,0,0,1,6.68,18.26,24,24,0,0,1-8.67,17.23,326.94,326.94,0,0,1-196.35,75.64,24.37,24.37,0,0,1-25.35-25l1-40.8,6.26-249a9.6,9.6,0,0,1,8-9.27,9.38,9.38,0,0,1,6.69,1.29A9.79,9.79,0,0,1,587.6,559.93Zm1.13,313A316.81,316.81,0,0,0,780.15,799.2a15.87,15.87,0,0,0,5.74-11.4,16.1,16.1,0,0,0-4.44-12.12l-27.78-29.19-.34-.37L581.65,565.59a1.3,1.3,0,0,0-1.24-.43,1.46,1.46,0,0,0-1.1.83,1.53,1.53,0,0,0-.12.55l-6.26,249-1,40.79a16,16,0,0,0,3,9.8,16.21,16.21,0,0,0,4.57,4.33A16,16,0,0,0,588.73,873Z" transform="translate(-173.27 -226.55)"/><path class="ef51d640-f705-4c82-a6e5-798ae2d5e7b2" d="M756.3,743.29h0L584.63,562.76l-1.85-2a4.43,4.43,0,0,0-7.24,1.21,4.52,4.52,0,0,0-.38,1.72l-.07,2.69-6.26,249.05a261.25,261.25,0,0,0,147.28-40.77v0a263.65,263.65,0,0,0,36.7-28.16C754,745.47,755.15,744.38,756.3,743.29Z" transform="translate(-173.27 -226.55)"/><path class="eb7d25e1-e149-4e2a-b8fd-393ea9fae641" d="M585.75,558l175.4,184.43-1.41,3.28-.61.58c-1.18,1.11-2.35,2.21-3.54,3.29a268.51,268.51,0,0,1-37,28.43l-.27.18a265.26,265.26,0,0,1-149.58,41.41l-4.11-.1L571,566.33l.06-2.71a8.85,8.85,0,0,1,.74-3.28,8.53,8.53,0,0,1,12.31-3.71A8.78,8.78,0,0,1,585.75,558ZM713.66,771.4l.26-.17a261.08,261.08,0,0,0,36.13-27.72l.43-.4L581.65,565.59l-1.85-2a.23.23,0,0,0-.25-.1.44.44,0,0,0-.26.13.52.52,0,0,0,0,.17L573,811.44A257,257,0,0,0,713.66,771.4Z" transform="translate(-173.27 -226.55)"/><path class="ed007fcd-7ab5-4f89-a27c-1d1dc205378b" d="M784.42,772.85l-27.81-29.23c3,3.36,26.48,31.85-4.6,58.38-92,78.53-184.2,54.27-184.2,54.27l3.76,12.29a20.21,20.21,0,0,0,17.32,8.49,322.87,322.87,0,0,0,193.89-74.69A20.26,20.26,0,0,0,784.42,772.85Z" transform="translate(-173.27 -226.55)"/><path class="ae4e7d4a-ac08-4f68-a6a5-be333cdc0ce2" d="M756.61,743.62l-.13-.14-.18-.19h0L584.63,562.76l-1.85-2a4.43,4.43,0,0,0-7.24,1.21l-.38,1.72.41.56C579,569,603,602.24,625.06,631.1c3.05,4,6.82,9.34,11.08,15.61,3.45,5.08,7.21,10.77,11.17,16.87,7.73,11.89,16.2,25.29,24.47,38.56,3.93,6.31,7.82,12.59,11.57,18.67l3.33,5.42c6.13,10,11.77,19.24,16.43,26.93,7.9,13,13,21.55,13,21.55v0l36.7-28.16Z" transform="translate(-173.27 -226.55)"/><path class="eb7d25e1-e149-4e2a-b8fd-393ea9fae641" d="M587.6,559.93,759.32,740.51l.14.15a.77.77,0,0,1,.12.13L787.4,770a24.53,24.53,0,0,1,6.68,18.26,24,24,0,0,1-8.67,17.23,326.94,326.94,0,0,1-196.35,75.64c-9.36.39-17.67-3.83-21.15-10.75-3.94-7.8-4.35-8.62-4.2-14.23l1-40.8,6.26-249a9.6,9.6,0,0,1,8-9.27,9.38,9.38,0,0,1,6.69,1.29A9.79,9.79,0,0,1,587.6,559.93Zm1.13,313A316.81,316.81,0,0,0,780.15,799.2a15.87,15.87,0,0,0,5.74-11.4,16.1,16.1,0,0,0-4.44-12.12l-27.78-29.19-.34-.37L581.65,565.59a1.3,1.3,0,0,0-1.24-.43,1.46,1.46,0,0,0-1.1.83,1.53,1.53,0,0,0-.12.55l-6.26,249-1,40.79c-.09,3.56-.09,3.56,3.33,10.34a9.93,9.93,0,0,0,3.68,3.87A17.24,17.24,0,0,0,588.73,873Z" transform="translate(-173.27 -226.55)"/><path class="eb7d25e1-e149-4e2a-b8fd-393ea9fae641" d="M585.75,558l175.4,184.43-1.41,3.28-.61.58c-1.18,1.11-2.35,2.21-3.54,3.29a268.51,268.51,0,0,1-37,28.43l-.27.18a265.26,265.26,0,0,1-149.58,41.41l-4.11-.1L571,566.33l.06-2.71a8.85,8.85,0,0,1,.74-3.28,8.53,8.53,0,0,1,12.31-3.71A8.78,8.78,0,0,1,585.75,558ZM713.66,771.4l.26-.17a261.08,261.08,0,0,0,36.13-27.72l.43-.4L581.65,565.59l-1.85-2a.23.23,0,0,0-.25-.1.44.44,0,0,0-.26.13.52.52,0,0,0,0,.17L573,811.44A257,257,0,0,0,713.66,771.4Z" transform="translate(-173.27 -226.55)"/><path class="ab3f49ac-2299-49fe-97cf-8640facc0209" d="M637.57,645l13.34,15.53-17.08,14.31a2.87,2.87,0,0,0,1.37,5l10.62,1.77c2.44,11.88-5.44,22.05-18.21,23-22.18,1.68-41.39-21.81-35.26-43.1,2.43-8.44,11.81-13.86,22.72-13.13q1,8.13,2.11,16.32l2.84.85Z" transform="translate(-173.27 -226.55)"/><path class="b792a178-46dc-4d9b-8d27-173a95710a97" d="M656.73,661l-18.2,15.26,10.75,1.79.56,2.76a22.86,22.86,0,0,1-3.93,18.63c-4.11,5.43-10.5,8.74-18,9.3-11.79.9-23.67-4.53-31.79-14.51s-11-22.56-7.72-33.82c3-10.34,14.06-17,27-16.08l3.36.22,1.82,14.11,17-20Zm-45.27-8.49C604,653,598,657,596.29,662.72c-2.49,8.67-.18,18.52,6.19,26.35s15.7,12.21,24.82,11.52c5.11-.39,9.39-2.54,12.06-6.07a14.28,14.28,0,0,0,2.78-9.31l-7.61-1.27a7,7,0,0,1-3.33-12.21l13.89-11.65-7.51-8.74-16.16,19-8-2.36Z" transform="translate(-173.27 -226.55)"/><path class="a3a7ca29-bbc9-41d1-9a72-0a7e90d3351d" d="M708.81,735.51a32.84,32.84,0,1,0-23,30.49A32.81,32.81,0,0,0,708.81,735.51Z" transform="translate(-173.27 -226.55)"/><path class="eb7d25e1-e149-4e2a-b8fd-393ea9fae641" d="M702.75,709.24a36.66,36.66,0,0,1,10.16,26.37h0a36.88,36.88,0,1,1-17.3-32.22A36.48,36.48,0,0,1,702.75,709.24Zm-27.47,54.14a28.73,28.73,0,1,0-14.5-4.38A28.64,28.64,0,0,0,675.28,763.38Z" transform="translate(-173.27 -226.55)"/><path class="b493c6f2-8495-4515-8b08-4290c09eb1ad" d="M708.81,735.51a32.84,32.84,0,0,0-42.22-32.26C717.83,724.56,685.76,766,685.76,766A32.81,32.81,0,0,0,708.81,735.51Z" transform="translate(-173.27 -226.55)"/><path class="eb7d25e1-e149-4e2a-b8fd-393ea9fae641" d="M702.75,709.24a36.66,36.66,0,0,1,10.16,26.37h0a36.88,36.88,0,1,1-17.3-32.22A36.48,36.48,0,0,1,702.75,709.24Zm-27.47,54.14a28.73,28.73,0,1,0-14.5-4.38A28.64,28.64,0,0,0,675.28,763.38Z" transform="translate(-173.27 -226.55)"/><path class="b0489e99-e106-4154-9eb8-6274ad1c8f95" d="M675.68,747.73c.06-2.3,3.23-4.09,7.09-4s6.93,2,6.87,4.35-3.23,4.09-7.08,4S675.62,750,675.68,747.73Z" transform="translate(-173.27 -226.55)"/><path class="b0489e99-e106-4154-9eb8-6274ad1c8f95" d="M655.66,731.76a5.94,5.94,0,1,1,5.79,6.09A5.94,5.94,0,0,1,655.66,731.76Z" transform="translate(-173.27 -226.55)"/><path class="b0489e99-e106-4154-9eb8-6274ad1c8f95" d="M683.35,720.57c.08-3.28,2.52-5.88,5.45-5.8s5.24,2.79,5.15,6.07-2.52,5.88-5.45,5.8S683.26,723.85,683.35,720.57Z" transform="translate(-173.27 -226.55)"/><path class="a76dbccf-0be0-47e8-8883-72cee6d43780" d="M618.13,781.53s-20.41,4.93-25.21-4-6.65-5.61-4-16,11.9-13.51,23-6.95S638.56,775.35,618.13,781.53Z" transform="translate(-173.27 -226.55)"/><path class="eb7d25e1-e149-4e2a-b8fd-393ea9fae641" d="M632.13,773.89c-.63,5.3-5,9.19-12.82,11.57l-.22.06c-2.4.58-23.66,5.34-29.78-6a35.82,35.82,0,0,0-3.12-4.86c-3.1-4.19-3.28-6.17-1.29-14.09,1.48-5.9,4.94-10.26,9.72-12.26C600.16,746,607,747,614,751.06c.44.25,1,.57,1.56,1C621.24,755.58,633.27,764.36,632.13,773.89Zm-15.08,3.68c4.21-1.29,6.73-3,6.93-4.66.4-3.37-5.81-9.87-14.15-14.78-4.68-2.75-9-3.56-12-2.26s-4.34,4.32-4.93,6.68a29.1,29.1,0,0,0-1.05,5.66c0,.21.17.45,1,1.54a43.54,43.54,0,0,1,3.75,5.85,4.11,4.11,0,0,0,1.48,1.51C601.93,779.56,611.06,779,617.05,777.57Z" transform="translate(-173.27 -226.55)"/><path class="b0489e99-e106-4154-9eb8-6274ad1c8f95" d="M583.76,826.67h0a5.29,5.29,0,0,0-5.12,5.45l0,.92a5.29,5.29,0,0,0,5.45,5.12h0a5.27,5.27,0,0,0,5.11-5.45l0-.93A5.3,5.3,0,0,0,583.76,826.67Z" transform="translate(-173.27 -226.55)"/><path class="b0489e99-e106-4154-9eb8-6274ad1c8f95" d="M665,812.08c-26.45,11.14-48.14,13.65-57.39,14.21a5.27,5.27,0,0,0-5,5.13l0,1a5.27,5.27,0,0,0,5.56,5.42c10.22-.57,33.11-3.23,61.29-15.12a5.3,5.3,0,0,0,2.77-7l-.39-.85A5.27,5.27,0,0,0,665,812.08Z" transform="translate(-173.27 -226.55)"/><path class="e8b90b83-2dc0-4260-9db7-2c23be26ed21" d="M271.31,548l40.35.66h.45l249.09,4a5.53,5.53,0,0,1,5,7.71,5.4,5.4,0,0,1-1.24,1.79L386,735.45l-29.32,28.39a20.29,20.29,0,0,1-29.56-1.43,322.88,322.88,0,0,1-76.41-193.22A20.26,20.26,0,0,1,271.31,548Z" transform="translate(-173.27 -226.55)"/><path class="eb7d25e1-e149-4e2a-b8fd-393ea9fae641" d="M563.71,548.87a9.42,9.42,0,0,1,5.49,4,9.62,9.62,0,0,1-1.4,12.18L388.87,738.4l-29.32,28.39A24.4,24.4,0,0,1,324,765.06a326.93,326.93,0,0,1-77.37-195.67,24,24,0,0,1,6.8-18.06,24.5,24.5,0,0,1,18-7.44l40.34.65h.39l249.15,4A9.86,9.86,0,0,1,563.71,548.87Zm-225.4,216a16.36,16.36,0,0,0,6.29.43,16,16,0,0,0,9.24-4.43l29.31-28.39,179-173.32a1.21,1.21,0,0,0,.32-.45,1.48,1.48,0,0,0-.13-1.38,1.32,1.32,0,0,0-1.15-.62l-249.1-4h-.5l-40.3-.65A16.14,16.14,0,0,0,254.82,569a316.84,316.84,0,0,0,75.44,190.77A16.14,16.14,0,0,0,338.31,764.89Z" transform="translate(-173.27 -226.55)"/><path class="ef51d640-f705-4c82-a6e5-798ae2d5e7b2" d="M312.11,548.65h0l249.09,4,2.69,0a4.43,4.43,0,0,1,4,6.15,4.55,4.55,0,0,1-1,1.44L565,562.13,386,735.45a261.19,261.19,0,0,1-69.78-136v0a264.15,264.15,0,0,1-4.15-46.07C312.07,551.83,312.08,550.24,312.11,548.65Z" transform="translate(-173.27 -226.55)"/><path class="eb7d25e1-e149-4e2a-b8fd-393ea9fae641" d="M566.07,548.86a8.55,8.55,0,0,1,5.6,11.57,8.7,8.7,0,0,1-1.91,2.76l-2,1.89L385.92,741.25l-2.86-2.94a265.22,265.22,0,0,1-70.87-138.09l-.06-.31A269,269,0,0,1,308,553.42q0-2.42,0-4.83v-.84l1.46-3.26L564,548.57A8.74,8.74,0,0,1,566.07,548.86ZM386.13,729.62,564,557.31a.53.53,0,0,0,.1-.14.44.44,0,0,0-.07-.28c-.06-.09-.11-.11-.25-.11l-2.69,0-244.95-3.92v.59a260.85,260.85,0,0,0,4.09,45.35l.05.31A256.91,256.91,0,0,0,386.13,729.62Z" transform="translate(-173.27 -226.55)"/><path class="ed007fcd-7ab5-4f89-a27c-1d1dc205378b" d="M271.31,548l40.35.66c-4.49.09-41.38,2.09-39.83,42.93,4.57,120.88,84.86,172.26,84.86,172.26l-11.58,5.55a20.16,20.16,0,0,1-18-7,322.88,322.88,0,0,1-76.41-193.22A20.26,20.26,0,0,1,271.31,548Z" transform="translate(-173.27 -226.55)"/><path class="ae4e7d4a-ac08-4f68-a6a5-be333cdc0ce2" d="M311.66,548.65h.45l249.09,4,2.69,0a4.43,4.43,0,0,1,4,6.15l-1,1.44-.69.08c-5.77.69-46.49,5.51-82.66,8.85-5,.46-11.49,1.3-19,2.42-6.07.9-12.81,2-20,3.21-14,2.37-29.58,5.22-44.95,8.12-7.3,1.39-14.56,2.78-21.57,4.14l-6.24,1.23c-11.5,2.25-22.13,4.38-30.94,6.15-14.93,3-24.65,5-24.65,5v0l-4.15-46.07Z" transform="translate(-173.27 -226.55)"/><path class="eb7d25e1-e149-4e2a-b8fd-393ea9fae641" d="M563.71,548.87a9.42,9.42,0,0,1,5.49,4,9.62,9.62,0,0,1-1.4,12.18L388.87,738.4l-29.32,28.39c-4,3.91-4.91,4.16-13.32,6.55-7.45,2.12-16.18-1.13-22.24-8.28a326.93,326.93,0,0,1-77.37-195.67,24,24,0,0,1,6.8-18.06,24.5,24.5,0,0,1,18-7.44l40.34.65h.39l249.15,4A9.86,9.86,0,0,1,563.71,548.87ZM338.64,765.36a9.81,9.81,0,0,0,5.34.08c7.3-2.07,7.3-2.07,9.86-4.55l29.31-28.39,179-173.32a1.21,1.21,0,0,0,.32-.45,1.48,1.48,0,0,0-.13-1.38,1.32,1.32,0,0,0-1.15-.62l-249.1-4h-.5l-40.3-.65A16.14,16.14,0,0,0,254.82,569a316.84,316.84,0,0,0,75.44,190.77A17.2,17.2,0,0,0,338.64,765.36Z" transform="translate(-173.27 -226.55)"/><path class="eb7d25e1-e149-4e2a-b8fd-393ea9fae641" d="M566.07,548.86a8.55,8.55,0,0,1,5.6,11.57,8.7,8.7,0,0,1-1.91,2.76l-2,1.89L385.92,741.25l-2.86-2.94a265.22,265.22,0,0,1-70.87-138.09l-.06-.31A269,269,0,0,1,308,553.42q0-2.42,0-4.83v-.84l1.46-3.26L564,548.57A8.74,8.74,0,0,1,566.07,548.86ZM386.13,729.62,564,557.31a.53.53,0,0,0,.1-.14.44.44,0,0,0-.07-.28c-.06-.09-.11-.11-.25-.11l-2.69,0-244.95-3.92v.59a260.85,260.85,0,0,0,4.09,45.35l.05.31A256.91,256.91,0,0,0,386.13,729.62Z" transform="translate(-173.27 -226.55)"/><path class="ab3f49ac-2299-49fe-97cf-8640facc0209" d="M464.82,569.42l-20.46.7c.33,7,.66,14.08,1,22.26a2.87,2.87,0,0,1-4.63,2.4c-3.12-2.44-5.78-4.5-8.49-6.61-10.39,6.26-12.54,18.94-4.59,29,13.79,17.45,44.08,15.67,55.59-3.27,4.56-7.5,2.2-18.08-5.74-25.6l-13.43,9.5-2.55-1.52Z" transform="translate(-173.27 -226.55)"/><path class="b792a178-46dc-4d9b-8d27-173a95710a97" d="M469.47,565.15l-3.16,26.06L477.92,583l2.45,2.32c9.37,8.89,12,21.52,6.42,30.72-6.09,10-17.34,16.45-30.1,17.23S431.8,629,424.47,619.71c-4.66-5.9-6.56-12.85-5.34-19.55a22.83,22.83,0,0,1,11-15.51l2.42-1.45,8.59,6.69-1.11-23.73Zm-5.17,37.54-7.14-4.26,3-24.75-11.52.4.85,18.11A7,7,0,0,1,438.25,598l-6.09-4.74a14.19,14.19,0,0,0-5,8.35c-.8,4.35.52,9,3.7,13,5.67,7.17,15.12,11.08,25.28,10.45s18.89-5.59,23.58-13.3c3.12-5.12,1.92-12.2-2.79-18Z" transform="translate(-173.27 -226.55)"/><path class="a3a7ca29-bbc9-41d1-9a72-0a7e90d3351d" d="M350,578.31a32.81,32.81,0,1,1-.74,46.39,32.33,32.33,0,0,1-6.08-8.78A32.8,32.8,0,0,1,350,578.31Z" transform="translate(-173.27 -226.55)"/><path class="eb7d25e1-e149-4e2a-b8fd-393ea9fae641" d="M382.57,566.26a36.93,36.93,0,1,1-35.42,9.11h0A36.7,36.7,0,0,1,373.43,565,37.13,37.13,0,0,1,382.57,566.26Zm-17.31,63.29a28.69,28.69,0,1,0-18.37-15.39,28.66,28.66,0,0,0,18.37,15.39Z" transform="translate(-173.27 -226.55)"/><path class="b493c6f2-8495-4515-8b08-4290c09eb1ad" d="M350,578.31a32.84,32.84,0,0,1,52.33,9.21c-50.4-23.26-59.15,28.4-59.15,28.4A32.8,32.8,0,0,1,350,578.31Z" transform="translate(-173.27 -226.55)"/><path class="eb7d25e1-e149-4e2a-b8fd-393ea9fae641" d="M382.57,566.26a36.93,36.93,0,1,1-35.42,9.11h0A36.7,36.7,0,0,1,373.43,565,37.13,37.13,0,0,1,382.57,566.26Zm-17.31,63.29a28.69,28.69,0,1,0-18.37-15.39,28.66,28.66,0,0,0,18.37,15.39Z" transform="translate(-173.27 -226.55)"/><path class="b0489e99-e106-4154-9eb8-6274ad1c8f95" d="M363.45,611c1.66-1.6.83-5.15-1.86-7.92s-6.2-3.71-7.85-2.11-.82,5.15,1.86,7.92S361.8,612.57,363.45,611Z" transform="translate(-173.27 -226.55)"/><path class="b0489e99-e106-4154-9eb8-6274ad1c8f95" d="M388.77,614.87a5.94,5.94,0,1,0-8.4-.13A5.95,5.95,0,0,0,388.77,614.87Z" transform="translate(-173.27 -226.55)"/><ellipse class="b0489e99-e106-4154-9eb8-6274ad1c8f95" cx="374.55" cy="583.11" rx="5.94" ry="5.31" transform="translate(-473.45 198.28) rotate(-44.08)"/><path class="a76dbccf-0be0-47e8-8883-72cee6d43780" d="M377.58,676.19s10.2,18.35,20,15.84,8.64,1.1,14.51-7.86,1.88-17.9-10.48-21.65S368.29,657,377.58,676.19Z" transform="translate(-173.27 -226.55)"/><path class="eb7d25e1-e149-4e2a-b8fd-393ea9fae641" d="M401,658.09c.68.18,1.27.35,1.76.5,7.73,2.34,13.11,6.74,15.16,12.37,1.77,4.88.9,10.37-2.43,15.46-4.48,6.83-6.06,8-11.24,8.59a37.2,37.2,0,0,0-5.69,1c-12.51,3.2-23.4-15.66-24.6-17.82l-.11-.21c-3.58-7.4-3.64-13.21-.17-17.27C380,653.42,394.56,656.33,401,658.09ZM394.45,688a4.26,4.26,0,0,0,2.12.07,44.71,44.71,0,0,1,6.84-1.21c1.35-.14,1.64-.19,1.8-.32a28.82,28.82,0,0,0,3.45-4.61c1.33-2,2.69-5.1,1.58-8.15s-4.63-5.75-9.82-7.32c-9.26-2.81-18.25-3-20.46-.4-1.1,1.28-.63,4.28,1.27,8.25C384.25,679.67,390,686.78,394.45,688Z" transform="translate(-173.27 -226.55)"/><path class="b0489e99-e106-4154-9eb8-6274ad1c8f95" d="M367.67,732.05h0a5.3,5.3,0,0,1-.54,7.46l-.71.61a5.29,5.29,0,0,1-7.45-.55h0a5.28,5.28,0,0,1,.54-7.45l.7-.61A5.29,5.29,0,0,1,367.67,732.05Z" transform="translate(-173.27 -226.55)"/><path class="b0489e99-e106-4154-9eb8-6274ad1c8f95" d="M323.37,662.42c9.72,27,22.57,44.65,28.43,51.84a5.28,5.28,0,0,1-.42,7.12l-.69.67a5.27,5.27,0,0,1-7.75-.43c-6.5-7.9-20.06-26.54-30.4-55.32a5.3,5.3,0,0,1,3.31-6.82l.89-.29A5.29,5.29,0,0,1,323.37,662.42Z" transform="translate(-173.27 -226.55)"/><path class="e8b90b83-2dc0-4260-9db7-2c23be26ed21" d="M289.46,306.06l28.09,29,.13.14.19.18L491.32,514.17a5.53,5.53,0,0,1-1.91,9,5.33,5.33,0,0,1-2.14.39l-249.1-3.79-40.8-.63a20.28,20.28,0,0,1-19.91-21.9,322.9,322.9,0,0,1,82.45-190.72A20.26,20.26,0,0,1,289.46,306.06Z" transform="translate(-173.27 -226.55)"/><path class="eb7d25e1-e149-4e2a-b8fd-393ea9fae641" d="M495.76,513.29a9.38,9.38,0,0,1,1,6.73,9.6,9.6,0,0,1-5.87,7,9.46,9.46,0,0,1-3.72.68l-249.08-3.8-40.8-.62a24.38,24.38,0,0,1-23.94-26.35,326.89,326.89,0,0,1,83.5-193.13,24,24,0,0,1,17.57-8,24.5,24.5,0,0,1,18,7.42l28.09,29,.12.13.15.15,173.5,178.86A9.7,9.7,0,0,1,495.76,513.29Zm-312.14-6.4a16.39,16.39,0,0,0,4.14,4.74,16,16,0,0,0,9.67,3.4l40.81.62,249.09,3.8a1.38,1.38,0,0,0,.55-.1,1.47,1.47,0,0,0,.88-1.06,1.33,1.33,0,0,0-.38-1.26L314.92,338.21l-.36-.36-28.05-28.93A16.08,16.08,0,0,0,274.58,304,15.92,15.92,0,0,0,263,309.26a316.87,316.87,0,0,0-81.41,188.3A16.15,16.15,0,0,0,183.62,506.89Z" transform="translate(-173.27 -226.55)"/><path class="ef51d640-f705-4c82-a6e5-798ae2d5e7b2" d="M317.87,335.35h0L491.32,514.17l1.87,1.93a4.4,4.4,0,0,1-3.23,7.49l-2.69,0-249.1-3.79a261.2,261.2,0,0,1,46.68-145.51l0,0a264.57,264.57,0,0,1,29.61-35.53C315.6,337.58,316.72,336.46,317.87,335.35Z" transform="translate(-173.27 -226.55)"/><path class="eb7d25e1-e149-4e2a-b8fd-393ea9fae641" d="M497.43,515a8.54,8.54,0,0,1-4.21,12.14,8.75,8.75,0,0,1-3.31.61l-2.71,0L234,523.8l.06-4.1a265.26,265.26,0,0,1,47.41-147.79l.19-.26a268.16,268.16,0,0,1,29.9-35.84q1.69-1.71,3.43-3.4l.61-.59,3.33-1.27,177.2,182.69A8.82,8.82,0,0,1,497.43,515Zm-255.06.77L490,519.49a.42.42,0,0,0,.17,0,.43.43,0,0,0,.15-.25c0-.1,0-.15-.09-.25L488.37,517,317.81,341.18l-.42.42a260.54,260.54,0,0,0-29.15,35l-.18.26A256.93,256.93,0,0,0,242.37,515.72Z" transform="translate(-173.27 -226.55)"/><path class="ed007fcd-7ab5-4f89-a27c-1d1dc205378b" d="M289.46,306.06l28.09,29c-3.24-3.1-30.76-27.75-58.52,2.24C176.85,426,197.37,519.13,197.37,519.13l-12.12-4.25a20.19,20.19,0,0,1-7.79-17.65,322.9,322.9,0,0,1,82.45-190.72A20.26,20.26,0,0,1,289.46,306.06Z" transform="translate(-173.27 -226.55)"/><path class="ae4e7d4a-ac08-4f68-a6a5-be333cdc0ce2" d="M317.55,335l.13.14.19.18h0L491.32,514.17l1.87,1.93a4.43,4.43,0,0,1-1.5,7.18l-1.73.31-.55-.43c-4.57-3.59-36.79-28.95-64.74-52.14-3.87-3.21-9.06-7.2-15.15-11.71-4.94-3.65-10.47-7.64-16.41-11.83-11.57-8.22-24.61-17.22-37.54-26-6.14-4.18-12.26-8.32-18.19-12.31l-5.28-3.54c-9.73-6.53-18.75-12.54-26.25-17.51-12.68-8.41-21-13.85-21-13.85l0,0,29.61-35.53Z" transform="translate(-173.27 -226.55)"/><path class="eb7d25e1-e149-4e2a-b8fd-393ea9fae641" d="M495.76,513.29a9.38,9.38,0,0,1,1,6.73,9.6,9.6,0,0,1-5.87,7,9.46,9.46,0,0,1-3.72.68l-249.08-3.8-40.8-.62c-5.62-.09-6.42-.53-14.06-4.77-6.77-3.77-10.65-12.23-9.88-21.58a326.89,326.89,0,0,1,83.5-193.13,24,24,0,0,1,17.57-8,24.5,24.5,0,0,1,18,7.42l28.09,29,.12.13.15.15,173.5,178.86A9.7,9.7,0,0,1,495.76,513.29Zm-312.24-5.83a10,10,0,0,0,3.72,3.83c6.63,3.69,6.63,3.69,10.19,3.74l40.81.62,249.09,3.8a1.38,1.38,0,0,0,.55-.1,1.47,1.47,0,0,0,.88-1.06,1.33,1.33,0,0,0-.38-1.26L314.92,338.21l-.36-.36-28.05-28.93A16.08,16.08,0,0,0,274.58,304,15.92,15.92,0,0,0,263,309.26a316.87,316.87,0,0,0-81.41,188.3A17.22,17.22,0,0,0,183.52,507.46Z" transform="translate(-173.27 -226.55)"/><path class="eb7d25e1-e149-4e2a-b8fd-393ea9fae641" d="M497.43,515a8.54,8.54,0,0,1-4.21,12.14,8.75,8.75,0,0,1-3.31.61l-2.71,0L234,523.8l.06-4.1a265.26,265.26,0,0,1,47.41-147.79l.19-.26a268.16,268.16,0,0,1,29.9-35.84q1.69-1.71,3.43-3.4l.61-.59,3.33-1.27,177.2,182.69A8.82,8.82,0,0,1,497.43,515Zm-255.06.77L490,519.49a.42.42,0,0,0,.17,0,.43.43,0,0,0,.15-.25c0-.1,0-.15-.09-.25L488.37,517,317.81,341.18l-.42.42a260.54,260.54,0,0,0-29.15,35l-.18.26A256.93,256.93,0,0,0,242.37,515.72Z" transform="translate(-173.27 -226.55)"/><path class="ab3f49ac-2299-49fe-97cf-8640facc0209" d="M411.26,458c-6.14-5.71-10.35-9.64-15-14l-15,16.49a2.87,2.87,0,0,1-5-1.57c-.49-3.93-.91-7.28-1.34-10.68-11.78-2.91-22.25,4.54-23.73,17.27-2.57,22.09,20.12,42.23,41.64,37,8.53-2.09,14.33-11.24,14-22.17l-16.22-2.77c-.35-1.36-.39-1.51-.73-2.88Z" transform="translate(-173.27 -226.55)"/><path class="b792a178-46dc-4d9b-8d27-173a95710a97" d="M417.56,458.22l-20.65,16.21,14,2.39.09,3.37c.35,12.9-6.71,23.71-17.16,26.27-11.38,2.78-23.89-.61-33.47-9.07S345.81,476.77,347.17,465c.87-7.47,4.43-13.72,10-17.61A22.83,22.83,0,0,1,376,444.25l2.74.67,1.36,10.81,16-17.57Zm-30.18,22.91-2-8.06L405,457.68l-8.43-7.85-12.2,13.41a7,7,0,0,1-12.07-3.82l-1-7.65a14.21,14.21,0,0,0-9.41,2.4c-3.63,2.52-6,6.71-6.55,11.81-1.06,9.07,2.87,18.52,10.5,25.25s17.32,9.4,26.09,7.25c5.82-1.42,10-7.28,10.77-14.74Z" transform="translate(-173.27 -226.55)"/><path class="a3a7ca29-bbc9-41d1-9a72-0a7e90d3351d" d="M323.72,383.12a32.81,32.81,0,1,1-33.3,32.31,32.36,32.36,0,0,1,1.91-10.51A32.82,32.82,0,0,1,323.72,383.12Z" transform="translate(-173.27 -226.55)"/><path class="eb7d25e1-e149-4e2a-b8fd-393ea9fae641" d="M355.28,397.6a36.92,36.92,0,0,1-32.62,55.24,37,37,0,0,1-36.34-37.47,36.46,36.46,0,0,1,2.14-11.84A36.87,36.87,0,0,1,323.79,379h0a37,37,0,0,1,31.49,18.58Zm-57,32.56a28.69,28.69,0,0,0,52.05-4.88,28.71,28.71,0,0,0-26.71-38,28.68,28.68,0,0,0-25.34,42.93Z" transform="translate(-173.27 -226.55)"/><path class="b493c6f2-8495-4515-8b08-4290c09eb1ad" d="M323.72,383.12a32.82,32.82,0,0,1,30.53,43.49c-19.23-52.07-61.92-21.69-61.92-21.69A32.82,32.82,0,0,1,323.72,383.12Z" transform="translate(-173.27 -226.55)"/><path class="eb7d25e1-e149-4e2a-b8fd-393ea9fae641" d="M355.28,397.6a36.92,36.92,0,0,1-32.62,55.24,37,37,0,0,1-36.34-37.47,36.46,36.46,0,0,1,2.14-11.84A36.87,36.87,0,0,1,323.79,379h0a37,37,0,0,1,31.49,18.58Zm-57,32.56a28.69,28.69,0,0,0,52.05-4.88,28.71,28.71,0,0,0-26.71-38,28.68,28.68,0,0,0-25.34,42.93Z" transform="translate(-173.27 -226.55)"/><ellipse class="b0489e99-e106-4154-9eb8-6274ad1c8f95" cx="310.28" cy="408.75" rx="6.98" ry="4.17" transform="translate(-276.42 486.21) rotate(-89.13)"/><path class="b0489e99-e106-4154-9eb8-6274ad1c8f95" d="M325.32,436.38a5.94,5.94,0,1,0-5.85-6A5.94,5.94,0,0,0,325.32,436.38Z" transform="translate(-173.27 -226.55)"/><ellipse class="b0489e99-e106-4154-9eb8-6274ad1c8f95" cx="337.7" cy="403.86" rx="5.31" ry="5.94" transform="translate(-244.53 508.81) rotate(-89.13)"/><path class="a76dbccf-0be0-47e8-8883-72cee6d43780" d="M274.08,471.87s-5.75,20.19,3,25.34,5.33,6.88,15.83,4.69,14-11.34,7.87-22.73S281.08,451.7,274.08,471.87Z" transform="translate(-173.27 -226.55)"/><path class="eb7d25e1-e149-4e2a-b8fd-393ea9fae641" d="M303.48,475.64c.35.61.64,1.15.88,1.59,3.81,7.12,4.52,14,2,19.47-2.19,4.7-6.68,8-12.63,9.22-8,1.67-10,1.41-14-1.86a35.61,35.61,0,0,0-4.73-3.31c-11.11-6.58-5.49-27.62-4.82-30l.07-.22c2.7-7.77,6.76-11.92,12.08-12.34C291.85,457.43,300.13,469.81,303.48,475.64Zm-25.79,16.5a4.05,4.05,0,0,0,1.44,1.54,44.33,44.33,0,0,1,5.7,4c1.05.85,1.29,1,1.5,1a29.15,29.15,0,0,0,5.7-.83c2.37-.49,5.5-1.71,6.87-4.65s.79-7.34-1.78-12.12c-4.57-8.53-10.8-15-14.19-14.74-1.68.13-3.48,2.59-4.93,6.74C276.34,479,275.39,488.14,277.69,492.14Z" transform="translate(-173.27 -226.55)"/><path class="b0489e99-e106-4154-9eb8-6274ad1c8f95" d="M227.59,504.39h0a5.29,5.29,0,0,1-5.65,4.9l-.92-.07a5.29,5.29,0,0,1-4.9-5.65h0a5.29,5.29,0,0,1,5.66-4.89l.92.06A5.28,5.28,0,0,1,227.59,504.39Z" transform="translate(-173.27 -226.55)"/><path class="b0489e99-e106-4154-9eb8-6274ad1c8f95" d="M245.45,423.82c-12.2,26-15.58,47.54-16.51,56.77a5.27,5.27,0,0,1-5.34,4.74h-.95a5.29,5.29,0,0,1-5.19-5.78c1-10.18,4.57-33,17.58-60.63a5.31,5.31,0,0,1,7.16-2.48l.83.42A5.29,5.29,0,0,1,245.45,423.82Z" transform="translate(-173.27 -226.55)"/></svg>